<mxfile host="Electron" modified="2024-05-26T13:59:21.446Z" agent="Mozilla/5.0 (Windows NT 10.0; Win64; x64) AppleWebKit/537.36 (KHTML, like Gecko) draw.io/24.4.0 Chrome/120.0.6099.109 Electron/28.1.0 Safari/537.36" etag="onpZTKopHzhapVNgSSew" version="24.4.0" type="device" pages="3">
  <diagram id="gTcWPlsqETtujV5M5H4J" name="Class Form1">
    <mxGraphModel dx="1290" dy="725" grid="1" gridSize="10" guides="1" tooltips="1" connect="1" arrows="1" fold="1" page="1" pageScale="1" pageWidth="827" pageHeight="1169" math="0" shadow="0">
      <root>
        <mxCell id="0" />
        <mxCell id="1" parent="0" />
        <mxCell id="gYR5J95TfdXIMAkzPQqD-7" value="" style="edgeStyle=orthogonalEdgeStyle;rounded=0;orthogonalLoop=1;jettySize=auto;html=1;" parent="1" source="gYR5J95TfdXIMAkzPQqD-2" target="gYR5J95TfdXIMAkzPQqD-5" edge="1">
          <mxGeometry relative="1" as="geometry" />
        </mxCell>
        <mxCell id="gYR5J95TfdXIMAkzPQqD-2" value="Початок" style="rounded=1;whiteSpace=wrap;html=1;fillColor=#90F04F;" parent="1" vertex="1">
          <mxGeometry x="63.05000000000001" y="40" width="120" height="60" as="geometry" />
        </mxCell>
        <mxCell id="gYR5J95TfdXIMAkzPQqD-3" value="class Program" style="text;html=1;align=center;verticalAlign=middle;resizable=0;points=[];autosize=1;strokeColor=none;fillColor=none;" parent="1" vertex="1">
          <mxGeometry x="73.05000000000001" width="100" height="30" as="geometry" />
        </mxCell>
        <mxCell id="gYR5J95TfdXIMAkzPQqD-5" value="Program" style="rounded=0;whiteSpace=wrap;html=1;" parent="1" vertex="1">
          <mxGeometry x="40.05000000000001" y="140" width="166" height="70" as="geometry" />
        </mxCell>
        <mxCell id="gYR5J95TfdXIMAkzPQqD-8" value="// Загальгий клас" style="text;html=1;align=center;verticalAlign=middle;resizable=0;points=[];autosize=1;strokeColor=#67AB9F;fillColor=none;" parent="1" vertex="1">
          <mxGeometry x="138.05" y="105" width="120" height="30" as="geometry" />
        </mxCell>
        <mxCell id="gYR5J95TfdXIMAkzPQqD-17" value="1" style="ellipse;shape=doubleEllipse;whiteSpace=wrap;html=1;aspect=fixed;strokeColor=#9999FF;" parent="1" vertex="1">
          <mxGeometry x="90.00000000000004" y="260" width="66" height="66" as="geometry" />
        </mxCell>
        <mxCell id="gYR5J95TfdXIMAkzPQqD-19" value="2" style="ellipse;shape=doubleEllipse;whiteSpace=wrap;html=1;aspect=fixed;strokeColor=#CC99FF;" parent="1" vertex="1">
          <mxGeometry x="90.00000000000004" y="390" width="66" height="66" as="geometry" />
        </mxCell>
        <mxCell id="gYR5J95TfdXIMAkzPQqD-20" value="3" style="ellipse;shape=doubleEllipse;whiteSpace=wrap;html=1;aspect=fixed;strokeColor=#FFFF00;" parent="1" vertex="1">
          <mxGeometry x="90.00000000000004" y="520" width="66" height="66" as="geometry" />
        </mxCell>
        <mxCell id="gYR5J95TfdXIMAkzPQqD-23" value="" style="endArrow=classic;startArrow=classic;html=1;rounded=0;exitX=0.5;exitY=0;exitDx=0;exitDy=0;" parent="1" edge="1">
          <mxGeometry width="50" height="50" relative="1" as="geometry">
            <mxPoint x="122.00000000000004" y="390" as="sourcePoint" />
            <mxPoint x="122.00000000000004" y="330" as="targetPoint" />
          </mxGeometry>
        </mxCell>
        <mxCell id="gYR5J95TfdXIMAkzPQqD-24" value="" style="endArrow=classic;startArrow=classic;html=1;rounded=0;exitX=0.5;exitY=0;exitDx=0;exitDy=0;" parent="1" edge="1">
          <mxGeometry width="50" height="50" relative="1" as="geometry">
            <mxPoint x="123.00000000000004" y="516" as="sourcePoint" />
            <mxPoint x="123.00000000000004" y="456" as="targetPoint" />
          </mxGeometry>
        </mxCell>
        <mxCell id="gYR5J95TfdXIMAkzPQqD-25" value="Class&amp;nbsp;&lt;div&gt;SortingAlgorithms&lt;/div&gt;" style="shape=callout;whiteSpace=wrap;html=1;perimeter=calloutPerimeter;position2=0;base=20;size=30;position=0.14;" parent="1" vertex="1">
          <mxGeometry x="158" y="230" width="163.04" height="60" as="geometry" />
        </mxCell>
        <mxCell id="gYR5J95TfdXIMAkzPQqD-29" value="Class&lt;div&gt;ArrayType&lt;/div&gt;" style="shape=callout;whiteSpace=wrap;html=1;perimeter=calloutPerimeter;position2=0;base=20;size=30;position=0.14;" parent="1" vertex="1">
          <mxGeometry x="156.00000000000003" y="480" width="143" height="60" as="geometry" />
        </mxCell>
        <mxCell id="gYR5J95TfdXIMAkzPQqD-30" value="Class&lt;div&gt;BenchmarkConfig&lt;/div&gt;" style="shape=callout;whiteSpace=wrap;html=1;perimeter=calloutPerimeter;position2=0;base=20;size=30;position=0.14;" parent="1" vertex="1">
          <mxGeometry x="156.00000000000003" y="350" width="123" height="60" as="geometry" />
        </mxCell>
        <mxCell id="HySqlshbMLwH49JAa5QG-6" value="" style="endArrow=classic;startArrow=classic;html=1;rounded=0;exitX=0.505;exitY=-0.021;exitDx=0;exitDy=0;exitPerimeter=0;" parent="1" edge="1">
          <mxGeometry width="50" height="50" relative="1" as="geometry">
            <mxPoint x="124.27545000000009" y="259.85" as="sourcePoint" />
            <mxPoint x="123.05000000000001" y="210" as="targetPoint" />
          </mxGeometry>
        </mxCell>
        <mxCell id="T20NRvePa0JLVxdu-tDM-3" value="" style="edgeStyle=orthogonalEdgeStyle;rounded=0;orthogonalLoop=1;jettySize=auto;html=1;" parent="1" source="HySqlshbMLwH49JAa5QG-8" target="T20NRvePa0JLVxdu-tDM-1" edge="1">
          <mxGeometry relative="1" as="geometry" />
        </mxCell>
        <mxCell id="HySqlshbMLwH49JAa5QG-8" value="4" style="ellipse;shape=doubleEllipse;whiteSpace=wrap;html=1;aspect=fixed;strokeColor=#70FF45;fillColor=none;" parent="1" vertex="1">
          <mxGeometry x="93.50000000000004" y="650" width="66" height="66" as="geometry" />
        </mxCell>
        <mxCell id="HySqlshbMLwH49JAa5QG-9" value="" style="endArrow=classic;startArrow=classic;html=1;rounded=0;exitX=0.5;exitY=0;exitDx=0;exitDy=0;" parent="1" edge="1">
          <mxGeometry width="50" height="50" relative="1" as="geometry">
            <mxPoint x="126.50000000000004" y="646" as="sourcePoint" />
            <mxPoint x="126.50000000000004" y="586" as="targetPoint" />
          </mxGeometry>
        </mxCell>
        <mxCell id="HySqlshbMLwH49JAa5QG-10" value="Class&lt;div&gt;&lt;span style=&quot;background-color: initial;&quot;&gt;ArrayDataGenerator&lt;/span&gt;&lt;/div&gt;" style="shape=callout;whiteSpace=wrap;html=1;perimeter=calloutPerimeter;position2=0;base=20;size=30;position=0.14;" parent="1" vertex="1">
          <mxGeometry x="159.5" y="610" width="191.54" height="60" as="geometry" />
        </mxCell>
        <mxCell id="T20NRvePa0JLVxdu-tDM-1" value="5" style="ellipse;shape=doubleEllipse;whiteSpace=wrap;html=1;aspect=fixed;strokeColor=#CDA2BE;fillColor=none;" parent="1" vertex="1">
          <mxGeometry x="93.50000000000004" y="748" width="66" height="66" as="geometry" />
        </mxCell>
        <mxCell id="T20NRvePa0JLVxdu-tDM-7" value="Class&lt;div&gt;ArrayBenchmarks&lt;/div&gt;" style="shape=callout;whiteSpace=wrap;html=1;perimeter=calloutPerimeter;position2=0;base=20;size=30;position=0.14;" parent="1" vertex="1">
          <mxGeometry x="159.5" y="716" width="211.54" height="60" as="geometry" />
        </mxCell>
        <mxCell id="n9nZmg8EN1uTCOGVFn07-1" value="" style="shape=image;verticalLabelPosition=bottom;labelBackgroundColor=default;verticalAlign=top;aspect=fixed;imageAspect=0;image=data:image/png,iVBORw0KGgoAAAANSUhEUgAAAnAAAAGHCAYAAAAwbG+fAAAAAXNSR0IArs4c6QAAAARnQU1BAACxjwv8YQUAAAAJcEhZcwAAEnQAABJ0Ad5mH3gAAIM6SURBVHhe7Z15cFXVnu9TVpdl3bJeaflHv9f9up7efl3v3nqv2hZbbYGWcIHWtq+0CE44gCJjQgKxr8NVVJCIECAMQebRkJCJiITJCAIClyEMYRAUkHmeyZwAv7d+aw9n7X3WGXNyhuT7rfoUyT5r77PPYa+1PllrD0mEIAiCIAiCJFQgcAiCIAiCIAkWCByCIAiCIEiCBQKHIAiCIAiSYIHAIQiCIAiCJFggcAiCIAiCIAkWCByCIAiCIEiCBQKHIAiCIAiSYIHAIQiCIAiCJFggcAiCIAiCIAkWCByCIAiCIEiCBQKHIAiCIAiSYAlZ4AYMGEB/+MMfAGgV8PEcjzl37hwVFxfT+++/TxkZGdS7d2/t/gPQEvDxxscdk5eXRydOnDCPzMQK6hGIJS1dj0IWON6pmoYG+ulmlYZqOhiAQ1UeDlfX0LnaOi/O++FCEFy0qKvXcskPl4PgSgCuMvV6rmlpsLkegBsBuKki/p/cVAVBtU8axf+9f2otGn1TF4B6PzQ4aDJoctIYgCaTm+K75+M5nnL48GHZ2XDFnzp1Km3ZsoUqKiro1IkjVH39jMJZP5zzcENPzY3zAbhANTd9cdEntTcvUW2VPy774QrVVvumrvqqH65RXY0/rvunlrlhU+/FTd/UVQWg2kGDRT1TE4BaPQ1MnYNGLfXeNKo0aDl37qw87piZM2dS37595R87e/bsMY/U+A7qkW/09cdCV3dUXPXGDeqRg5auR2EJ3GXR8eWdv0L5giUmBcyFq1RoUmRSbFJisvSiQenFazbfXDJYZvKtyXKTssvXaYXJSpNVJqtN1ly5YfOdSfnVm5LvTdaarDP5gblWResFG0w2mvxocb2KNplsvl4t2cLcqKa/mGw12WaynblZQztMKgQ7TXaZ7K4y2COppUqTvdUG+0z2mxww+ammTnJQ4ZDJz4JfTA4ztfV0xOSoya8mxxghmsdNTtQ12JwU8secMjltcqa+kc4yQtDOmZxvaJJcMLlockmIFXO58ZbNlSaDqybXTK6b3GBu3aabgiqTapMak9rbHupu35HU3zFoMGk0aTK5xYhj97bJHT6QRX4R3308CdyCBQuof//+srO5efUkXTqxhU7vL6GTe/MFS0wK6OS+Ajq1r1BQRKf2M8USLnv6ALPUpJRO/1RKZ376xuDgMpuzB7+ls4eY5SZldPbnMjr38wqTlXTuF2YVnf9lNZ0/zKwx+Y7OH/mOLhwpN/meLhxl1tLFo+vo4q/MDybr6eKx9XTp2AaTjXTpOPOj5PKJTYLNJlvo8sktdOXkX0y20pVTzDbJ1VPb6erpHSYVdPVMBV07s9NkF107y+yWXD+7h66fYyoNzu812Se5cWG/yQGDi8xPBpcO0s1Lh0x+ppuXmV8kVZcPU9UV5ojJUaq++qvJMaq+xhyX1Fw7QTXXmZMmp0SHfopqb5wWnBGdNHNWUnfzHNVVMedNLojO9ALVV180qLkkuCxpqLlCDbXMVZNroiO7Ro111z3U35A01d+kpgamyqSamhqr6VZjjUkt3Wpi6uh2Uz3dvsU0mDTS7duCW/wHTyMdPHiQhg8fTp9//rno6BrMozb+gnoUTD2y6hLqUSLXIwickDQIHAQulqmqqpKjBfPmzZN/tV4QjfeJyjzJyUrudNDxQOBi1/Hcud0kuX37luyAysvLKTU1VR638RTUIwhcW6tHEDghaRA4CFwsw+dHbNiwga5f/EV2JicqF6PjgcDFXcdzR3Q8d+5w59MkRxG484mnkTjUIwhcW6tHEDghaRA4CFysMnv2bMrNzZWdzok9uQLudNDxQODit+O5c+e2HEXgEYR4uQgI9QgC1xbrEQROSBoErm0L3KeffupFNMInWvO5OnU1N2RHgo4HApcoHQ/DIwgff/wx/c3f/E3U6owuqEcQuLZajyBwQtIgcG1b4JKSkryIRnjKh69OOi8abqPTQccDgUucjof59ddf6ZlnnqG77rqLfve735lHdnSDegSBa6v1CAInJA0CF+cCJ5bX1tZSbV2dX4GrF3/JcLm6hoa4Fzi+HxBfUn7zyjE6vvtrdDwQuBbveBrrq4z6USc6Gj8dT1NjvSxXXy+W+el4uCbdFvXwvffeowceeEDWm/vuu884wKMU1CMIXPQFrjpu6hEETkgaBC5+BU6OuolKcP36dbpx44ZD4lSBqxPyVl1dLcvdvHlTSlw8Cxzf6mDevHl0QTTM6HggcC3f8RidjlWPPJ2Ps+Npaqxz1CPufPx1PHdE3VqxYgU99thjdt158MEHjYM8CkE9gsC15XoEgROSBoGLX4HjysKXWX/xxRc0duxYunr1qiFxt27ZAmfJ2+7du2nUqFFUVFQk17MkLh4Fjm93wPep4k4GHQ8ErqU7Hl09qhPLmho8HU9Tg9HpuOtRg935eHc8nKO/VFK3bt0c9ef555+Xr7V0UI8gcG25HkVX4EpTPTvXeQrNirHAZad6vigdj085AIEz5S1mAidkjSvMxIkT6bnnnqNx48bR5cuX5fI68XqdEDl+nSvLsGHDqE+fPrR8+XJZYfjJDfEqcHzVEZ98fXz3oiA7nqk0rr33fjID50Hg0PH473i4k9HVI9n5NDJGPdPVI77rvL+O5+LZw14dDxONhF6PFIGb95xnfzsMoq0xF7hcyn7K+R1adB5TEEWBm0VDzfcdWhwv9aiA0s19Si9DPbISVYEbNUTdsS6UshMCB4HzL3B8Dhwf/DxcnZ2dLf8iycrKoosXL8rlamXhc2G+/fZbh7zFq8B1795dfqZICBzTadR0CBwEzmfHw+fuhFOPGuxOx3fHc/3iz9p6xCdlt3RCr0cegSvoq+7vw5T1XfwKHNP5y4II1iMIXGuoR1EUuOXUXe5QF3qks7Fjj2TvjZMp1AP0Xhdjn1jaMIUaPwJXI5ZxBThz5gwdO3aMJk2aRD179qTx48fLZVxZ+LEkXFlKSkrkskuXLlGtOEYbb9+OW4Hj9+XLx8MRuE4jc8ypn+mU1cHc5w6DaSsEDgLns+Mxzt1R69ELL7wQsB7xOT58FV04Hc8999wjX2/JhF6PLIH7hAbK/XyYOpl1iP8IiheB6zwm36xH2TTE/D6T+mdHsB5B4CJVj4Lpj1qqHkVP4Kzp086TaYb9szGN6hG45dTD3OkepcvpBbPMvMtl1NNc3nOZ+bNYvkCI29gUY7mHLjR8DwvcfsowpSwpdYVH4JanmeXSKDugwB2g961tDF3pEbiydHMb6TTtxip6Tf6cRK+X/UQfWeUFT+YcdAjczDTPa8ybKyFwgQTO+qsmMzNTnk/A0yVcaV588UX685//7KgsmzZtok8++SQhzoELvePRCVwRbR31sLnP3alw/ygaZO7/oPnmzx1SaJvZ8Wwb3c4sa9IxlbY7Op55NKGj5/XkzHQabP48OJc7nizl9yyjY3kqg3YKgSvt71nP4DHK/tESuGxKMZen5BdSdierzOM0abPoeAp6m78LOn1IeyBwEe94mlOPAp2746vjYVo6odcjU+DmmtOnPHU6r7v5M/8RpAqcUp8WjPbUp4OZ9vLBCzONOtFxqKxLxW8byz08ShPWs8AtoIlW3XonyyNwuS+a5V6k0gACNyTf+YdQ6QBzeyYpBZbA5dj1LbWglCbZ9U38XugUuMqsJ+3XJINmuQRuFU1J9rw+dKlVj+bZZdJKv6Op5qBMUlIHmrpT1KHSt+11kjqPpgNKPVrh1Wc/RTl7rHqU5xG15UuMn7uMpYNeAreVvrL72mT66oCoRysGm79bDKY1rbweRU3grOnTR7IraenOyfSI3DFjGlUncDYugVOXL7i8j4bZB45KGmVduUG5k7vav08wBW6iOW362OQDQY3AFU3xbCPHFLicoUbZJ6b+RH9RBE7HGysMgXPLm0UfKXEQOJ8CJ/aNTwidOXOm/EuHHwDMjx+ZPHmyHL7mylJcXEybN2+moUOH0qBBg+Sdrevq6qi+1QvcZ+YogkB2Pp4Ox8YUuCKvjsXiBSqWAueUNzdugbORAudr6udlKnUJXDB0HlcKgYtwx8MjAOHWI8/0T+sROGv6tNPIr+jUmkHUSe7vI3IaVSdwNi6Bs5ECN9dHHepJJb+soorMR83fe9FSU+CWvmOU6fxFrmMEzgn/MeQcyfb+g8nAkDiPwHnzOi03BW75IM3rLoHzpi+VuQQuGLpmrzPr0XrK0fbZ/WmVS+BsdAJXNtB8neVN1CMveWMiL3DxVo+iJHCe6dMhO/kq1EpKUaZRtQInBG2uWGZMoSoCZ4686adQy6iXWe7FZTyFuoJetH5fzgK3gl6Sv3el/6oMdgp1JfU2t9G7jAXOErau9OF+nkJVBC5tlTmF+hN91NVatpoqDnxFT5rrfHLAmEJdkWOKoXgdAudb4OQ5cGL/+FLsWbNmyb90uNLs27dP3kLAXVm+++47WVni/TYioXc8/s+B4wsZTqsC12EIbbWmfr5PoWRz+aCF5tTP2lR7WfLoueL3NPv3wYvMqZ/cnsa2eJlb4J4aLsTN1xSqMmqQ5xK4/pPl1M+usY/b2zY6nRLPSMHAaRC4iE/9VIl6URNyPWpo8H/7A07iCZxn+jRrjfNUBOe5pGp98oxkn1EFTo5i+5pCHaOMWPMU6ljldxY4qz4JQdvgnELVYY/AbXqPOstlj1P2ZmMKdbdVnwbkOAVO1iVRhwpfM7fzJE3eKurR1o+oi1mmy/gysw6V0ZTxLoEbPMeoRyV9zPXb05QKl8ANmSfr0P7sDmYZHpXjerTWI2spi3zUo1xKM9dJX+4SOCFuP9n1SBW4QvvnrlO3yXp0KCfZWKfrBPq5DdWj6AicffVpKo0ybyMyK7uLsUwI2WyNwPUoVc+BU6dQnefALZxkbseFIXA3abx1oULqCs/0aZccymd5C0rgqmiKOeKWNHQVbbamT7tMo1Iha6rAvS4EzzoHbpkiaBUrrClXDV2/olUQOL8CZ0kc31OHn3n4yiuv0OjRo+nnn3/WVha+gCHeb+QbesfjS+B46tQ6+VqZ8pmvnLuzoIdRVnQ225Rzd+zpnrcz6eyiF8zt9aQS+9ydBfaIgvcUqvMcuJ1jPPcvUnELXEq+ee7OklfNMr1pmXnuzjJrSggC1yIdj9X5BFuP+Kq5QDcg5SScwM39o7l/z1Gh+1QEx7mkSn1aoJ4Dp06hOs+B2+4+TcEqJwVutT3iJqdRrelTOYrtFDjPFOoPymjby1TKApdv1R0NnT6g3Y4pVKsefUWp1rJCUY8KXzfXeYOWB3MO3I7PTOHzFri0UrMelb5lbvNtKjPrkT1dqgjcgUkdzXJO3AKXvlx/DpxNlyw6ZNUj7fRp669HURG4kY6rT910oZRdYQrcsqH2dh6dtF8zAneTyitz6DG5LI1eMmXupeUhXsSwL4cel9tIp96mzL0mZM24iEEvcNOtKVMhcGWWzIn1Z93ERQzhCJx8lJaoDHzfHa40vXv3pnfffddRWazz3hLhUVqhdzz6c+Cc96/SC9y2zx8xPpcfgbM7no5ptMMWuC8VYfMjcPZ5PFbH43sEDgIXW4Hjk7C58wlUj/h8nUCPAEpUgXNefeqGp1HDFDj7jyA+f3S+ZgRO1KH1w8yR7l402JS5IbnWH0J6gbuY97JcJkfcNm2gXV9ao9evUqn2IobAAmef+9ZpBFVGU+CW9TPLJFHXSetF/fE9AudL4Lp26WRuoxN9tV+tR8U0zCxjkEzTD7TuehQFgbOmT/2QsjwsgVtgjb6llBlTqHum0qNmOVvgBBMctwsxLl4I9SpUexROkk45Ut58TaGuotfNZXwhgzoC1178bgncipx0+vQABC5ogROv8/3f+L47c+bMoZdfftlTWcRylrdEeRZq6B1P+AIXaAp18CJn5xPMFKoqcDu/MEff+k80plB//C9zigcCF48C12h2Prp6xOf4GJ1O4Gc4JqbAWdOnfnhrVFgCZ/8R1G+MqD+iDq1TTkuwBO6wMgon4YsX/AncEmVa1XsErvPYIlvgdo/tTZM2BydwV4OcQo20wNmjbym5Rj3a8wV1NbcTrMCllykXMHQZT4e86lGJLXLDVrbuetTyAmdPn3ahwfL8N8+TGEbbI3NDaXRzBE6DKnDf21eeClJXhHcbkTJlG0NXKbcRUQTOi3SaLmSt4uZBGmGdE+egKwROELTACepuGyNxfGk2X93DJ4hKeWtsTKiH2Yfe8TRD4ESn4/MiBvPquVAvYtAKnAYIXPwJnPEQbn6WY42jHnGn09hgdTqtVODs6dOHadwa55MYCt+y9rs7FTZH4DSoAnc+t5fntXey7HqkCpwOz33gCn2UeyJ4gQvyIoYWEzgNwQucqEf7s2zx65qzzXMOnIOWHYGLh3rUwgJXSYOtkxg7T6bpYpnjUVqlnilQFrbQz4FTr0Ll24doplBZ4OxpVM/0acgCty+HnjC3wdOnOoF7vcwz8sZy9rGQsx1S4PS3ETEuYIDAhSJw8jmot25JieMhapa32oYG+TxUCJxvgdNKHJ/7JuWN4ZOvPVM+xu0PgpxCdXQ8fMUcplDjX+BqxM81VFdbY5x6IEcM+F5V/CDu1ipwynmk7QfSFvejtKzbiQgGzQ/nHDj1KtR2NGGdZgqVBW79cGVkzlc9cqJ7EoP7NiLGBQzBCxzXI7fEdRm/okUFznkVakfKEf9XoU6hWveBW630p127ugWO5a3116MWFjjjHDimxMQhcCaeq1ANIn0jX/t2Il1yKM+UN6fABX4WarF1O5Eu02ip40a++nPgcCPfFhQ4U+JqxT5Z8tb6Bc68f1UUn+FY0s/6Pvi2B9z5+LoBKW7km4gCZ3Q+tVQvOp167nSauNNpzQIXm3rkvpGvfTuRjsOpImb1yKpLqEeJXI9atcDZV6Ca8Oib/kkMvgXOee6bcSsR55MYIHAxETiB9TB7CFwkOh7fU6jJmQuNkQMIXKvreHgKyHoINwSuZQVuqf0HkQGPvsWuHkHgWkM9ajMCZ9wHrnkCZ9wHDgIHgWt+4q/j0QkcT6MqUz8QOHQ8ELgA9Sg4gTPuAweBQz2CwPkUOPscOJNwBM4+B05gP0rLIXB4FioELvQkUscDgUPHA4FrbfUIAgeBg8BB4ISsQeBCDzoeCBwErvlBPYLAQeBCCL8BBA4CB4FrXtDxQOAgcM0P6hEEDgIXQvgNIHAQOAhc84KOBwIHgWt+UI8gcBC4EMJvAIGDwEHgmhd0PBA4CFzzg3oEgYPAhRB+AwgcBA4C17yg44HAQeCaH9QjCBwELoTwG0DgIHAQuOYFHQ8EDgLX/KAeQeAgcCGE3wACB4GDwDUvke94RtIg+xmOEDh0PBA41CMIHATOFX6D0AROeR6qRefJNAsCB4EzgcCF0vF8QgMd+yo6GwgcOh4IHOoRBA4CFyj8BqELXBcavBMjcBA4CJyVsDqeuX8U+/YwjVujjBx8N4gGjpoOgUPHk1AdT6SCegSBg8CFEH6DyAnccno+aSiN3jWFHrF2NmW5KXDL6QXxWqYicGNSkqjnMha4MuopXhu7bKj9AXstu0FfT+pi//6i+B0CB4FrPQLHIwai01kd3NTP1lGPKJ+nBxUpHU/R28pnfTvT7niK1Wc19vsSAoeOpxUKHOoRBA4CF0GBEzvYeQrNFqK2TEhbD/F7j9JgBE6sl1JmjMBZIpdaZozALUsT25xKuULQIHAQuFYhcDxq0H4AbQnq3J0ZlPXWENpqjhxwR5P8+Wyj41nYg5I6ptJ298jBohfE8jTagRE4dDytWeBQjyBwELjmnQP3SHalInBdKGWXZwo1U0hau+y9QQhcF0rfbU2hllEv8fvwPdYUahm9mJRG44WgQeAgcK1G4Pp+In4O4+TrBaKzeXu00fGsTaXkpB5U7O541qaJ5S9QCQQOHU9rFzjUI1F/IHAQuKAFLsAUqpA0S+DmZHcJUuCG0lgpb5bApVGWkDcIHAQOAic6nfnPOz+T1fFYowdyueiArI6Hz93h0QO5vKfogCBw6HggcK23HkHgIHAQOAickDUIXOgJueMJ5dwd7nQ6eKZ+HCMHJvLk60ViecehtN3qeKyTrxf1FMvTaQcEDh1PaxM41CMIHAQuGgK3l4Z2TqIXSk2BM89zg8BB4NqmwC2hLZ89LPYt8NVz8sTrt0bZUz/yZGtdx8PTQLqOZ12aWA6BQ8fTGgUO9QgCB4Fr1jlwSUmpNDqgwF2j5aWeq0z5ggWMwEHg2rLAGbdAeM65rx0G0VavqZ8ZlNXBU2bQ28rIgT3tw7SjCWu50xHY0z7m8nXc6UDg0PG0PoFDPYLAQeCCFjgDHn3zHoEzYHmzBI7BfeAgcBA4Hx2Pz3N38CgtdDyJ0/FEKqhHEDgIXAjhN4DAQeAgcM0LOh4IHASu+UE9gsBB4EIIvwEEDgIHgWte0PFA4CBwzQ/qEQQOAhdC+A0gcBA4CFzzgo4HAgeBa35QjyBwELgQwm8AgYPAQeCaF3Q8EDgIXPODegSBg8CFEH4DCBwEDgLXvKDjgcBB4Jof1CMIHAQuhPAbQOAgcBC45gUdDwQOAtf8oB5B4CBwIYTfAAIHgYPANS/oeCBwELjmB/UIAgeBCyH8BhA4CBwErnlBxwOBg8A1P6hHEDgIXAjhN4DAQeAgcM0LOh4IHASu+UE9gsBB4EIIvwEEDgIHgWte0PFA4CBwzQ/qEQQOAhdC+A0gcBA4CFzzgo4HAgeBa35QjyBwELgQwm8AgYPAQeCaF3Q8EDgIXPODegSBg8CFEH4DCBwEDgLXvKDjgcBB4Jof1CMIHAQuhPAbQOAgcBC45qV379507tw5dDwQuITveG5cOoJ6BIFDPYpBPYLACUmDwEHggq0wkUpqairt378fHQ8ELuE7nrMnD9K//du/oR5B4FCPolyPIHBC0iBwELhgK0ykMmLECNqwYYPsONDxQOASueM59NNe6tatG+oRBA71KMr1CAInJA0CB4ELtsJEKqtXr6YxY8bQJdHYouOBwCVqx3NH1K158+bRP/zDP6AeQeBQj6JcjyBwQtIgcBC4YCtMpHLlyhV5/s71K6eNTgYdT5AdDwQunjqeW7duUf/+/enee+9FPYLAoR5FuR5B4ISkQeAgcMFWmEhm2rRpVFBQQFfO7EbHA4FLuI7ntqiDPH3ZsWNHbR1iohHUIwhcW61HEDghaRA4CFywFSaS4dGDvn370tUrl2XDj44HApdIHU9NTQ2lpKT4HDVgohHUIwhcW61HEDghaRA4CFywFSbS2b59O7333ntUc/Oi7EzQ8UDgEqHj4XuvTZgwgf73//7f2vpjEa2gHkHg2mI9gsAJSYPAQeCCrTAtkcWLF8sTsW/euCwa73XoeCBwcdvx3BY0NTXKE66feOIJbd2xSE5ONo/w6AT1CALX1uoRBE5IGgQOAucm2vn2229p+PDhdPToUbp+8RfZkaDjgcDFU8dz+9YtunDhAo0aNYratWunrTcqsQjqEQSuLdWjsATuakODt5hJOfNImS1nJstMLDljWMQ2XrspRMlgk8lmF1uEPP3FZKuLbSZSmkx2WAhRsgRKJ1G2TAn2mFS6EZ38XpN9QrCY/YxOrkwOMkKgVMFiuVIFyyFaNUKyTCzR0gqXwBIulRMmJwWnVBzyZXDWxTmT80LMLC4IMVO5aHJJiNllRoqZwRWTqybXLJoMLDmzBU1w00WVSTWjyJoUNpM6k3ohbh6EuAl8iZtD4AS3TfiSbeak+H+KF4HjHDhwQJ7LM3XqVDp0UDSKl4+KRnuT3agbrDP5wUA07hdE485c/HWDKM9s9KA08peOb7K5fNxq7J2N/mXR4Btspcui0Weshv+KaPgNdtAVW6Q8ncBVRwfg7AiuiY7AoJKuiY7AQu0Mrp/fT9ftDkHpFC6IzkBw84LoEC5aKB2DxOgYHB2ERHQOjOggVBydhavDsDsNidJpWIjOo0Z0HgaezsPDOUndTaUTsbA7E+5IPJ2JhysmV6ne6lTMjqVBdChMY53RqTSKTkWlqV50LBbcwUhqREejUiv+8jc6GoN6m9tNSocjaaJb4l8eKTh+/LgcLXjmmWfof/7P/6mtMyrRHn1Tg3qEetRW6lFYAsc7AEBrIJ4EzkpxcTENGDBA3h7h448/1u43ANGARwlYhvgGo7///e/prrvu0tYXlfvuu888kmMb1CMQL7RUPQq5p+IbJy5YsMAL3rmHHnoIgITi7/7u77SVJx7Cz3h88MEHtfsNQDT467/+a/rNb36jrSM67rnnHvPojZ+gHoFY01L1KGI91aeffqrdEQASkXjK7373O+0+AhBPxMvIm6+gHoFEIJR6BIEDQEM8hv8q0+0rALEmkYJ6BOKVUAOBA0BDPOef/umftPsMQDThEa1EDuoRiAeaU48gcABoQBAEQZB4DgQOAA0IgiAIEs9BT4UgCIIgCJJggcAhCIIgCIIkWCBwCIIgCIIgCRYIHIIgCIIgSIIFAocgCIIgCJJggcAhCIIgCIIkWCBwCIIgCIIgCRYIHIIgCIIgSIIFAocgCIIgCJJggcAhCIIgCIIkWCBwCIIgCIIgCRYIHIIgCIIgSIIFAocgCIIgCJJggcAhCIIgCIIkWFpc4M6dO0d79uzx4vDhw2YJI/y7rpyOhoYGcy2iqqoqbRkdvC9qDhw4oC3nhsup8fWZdPD+WeH91pXRge/HP76+H/dnQBAEQZDWmIgKHHeeeXl5lJGRQX/4wx/8wmXUBLOOhdpJc6etK6NjwYIF5lpGevfurS3nhsup4e3oyung/bPC+60rowPfj398fT8DBgywy6SmptLs2bO9ZA9BEARBEj0RFbjt27fbnWcghg8fTrdu3bLh33XldJw+fdpeb9euXdoyOubPn+94z1AERV2Pt6Mrp4P3z1qP91tXRge+H//4+n587TPLnCqLCIIgCJLIiajA1dfX0zPPPOPoOF/q9Z80ZMBrCq9LJo77jKqvn7Xh34cMeMPDQD0pA9+k08cPUs2N85J9u7fIZR76UMogPd+ULKaamxdtRvw5QyzvK0kd9BalDtbzyUfvUm3VZZtlS/PF8rcV+lHqED379+6guuqrkrOnjtLQIe+46E9DU7yZnD2W6mquCa5LJmePE8sHeJPKDLRJE5w7c5zqa29Iftq/RywbpGfoYAfLv11K9XVVNp99+rFYPsQm3SKNSbEZ+dkIaqivsSlb/o1YnqonnRlqc/DgAWpsqJNcOH+WhollBmneDPOQkzOVGhsbbPj3YcPShcC96jj+3Hz++eeOKWYEQRAEScSELXDcCY4YMUKOaty5c0eOgjQ2NtKcGeNpybzP6fCOXDq5N1+wxKSATu4roFP7CgVFdGo/Uyw5vb+ETh9glpqU0umfSunMT98YHFxmc/bgt3T2ELPcpIzO/lxG535eYbKSzv3CrKLzv6ym84eZNSbf0fkj39GFI+Um39OFo8xaunh0HV38lfnBZD1dPLaeLh3bYLKRLh1nfpRcPrFJsNlkC10+uYWunPyLyVa6corZJrl6ajtdPb3DpIKunqmga2d2muyia2eZ3ZLrZ/fQ9XNMpcH5vSb7JDcu7Dc5YHCR+cng0kG6eemQyc908zLzi6Tq8mGqusIcMTlK1Vd/NTlG1deY45Kaayeo5jpz0uSUkOVTVHvjtOAM1d5kzkrqbp6juirmvMkFIasXqL76okHNJcFlSUPNFWqoZa6aXKOGumvUWHfdQ/0NSVP9TWpqYKpMqqmpsZpuNdaY1NKtJqaObjfV0+1bTINJozg+a2nTjxtp1KiRXhLHI8UIgiAIksgJW+B4JIM7w+7du8upr7raG0KE1tGJyjzJyUqWNwgcBC42Anf7diPdud0kOXbsV+rbt488XhcvXmwewQiCIAiSuAlL4IqLix0jGtMnjxSCVijEbTEEDgIXdwJ35/YtampqoHXr1slR4tu3b5tHMoIgCIIkZkIWOL6iT5W3Ee8PpBN7cgUsbxA4CFx8CtydO8xtsdyY6i8sLJRXveLCBgRBECQRE7LAqbez6PGf/0FHd7K8QeAgcIkhcMzNmzdp5syZlJycLC+6wUUNCIIgSKIlJIHjG7aqo2/fLZ1oyhsEDgKXOAJ36dJFx9XS7dq1M49wBEEQBEmMhCRw6g1a303rS8d3fw2Bg8C1uMA11ldRbW0t1dUJYfMjcE2N9bJcfb1Y5kfgiO7QwoUL7WP54Ycfpvvuu884yBEEQRAkARKSwKl3uV/6dSYEDgIXBYGrllJ2/fp1unHjhiJxToFraqyj6upqWY6nSFni/AnclStX7GOZp1LvuusuevDBB40DHUEQBEHiPCEJnNXhMUd3LoTAQeBaXOBY3vh5qV988QWNHTuWrl69SnViWVODR+CaGgx52717N40aNYqKiorkeg22xHkLHKfvG73s4/k3v/kNJSUl0fPPPy9fQxAEQZB4TtACp45Y9OrVS8jbotAFbt5zspOUdBhEW+NG4PIo+ylzv9w89R7tirbAlfTR7svQpW1P4FjWWOAmTpxIzz33HI0bN44uX75sSFwjUydfZ3kbNmwY9enTh5YvXy4FrrGh3q/ADe7veezW/fffb3/PCIIgCBLvCbq34lsu8BWo/MzJ8ePHhyVwBX1VIXmYsr5LAIEzSckPQeC2/Jk683qdPqI9IQncCpqS7P3eFm1R4PgcOJYxnj7Nzs6WI2RZWVl08eJFe3TOkre+ffvSt99+a4y+2fLmW+BGvO85JeB//I//YX/PfIEDgiAIgsRzQh5u4EdmNTU1hSFwn9BA2UE+TJ06GB1lp1HT407gOo9Z4plCzX/Z7tSTkl6l0iAFbs+4J4x1QhS45YOt90qiLhNWO6ZQ903s0EYFzjgH7syZM3Ts2DGaNGkS9ezZU/4RwctY3viPCpa3kpISuezSpUvyXDm+GjUcgbvnnnvk6wiCIAgSr4mewM01p0956nRed/PnwXIa1Slwo2iQ2ZEOWjDa+LljKm2TApdJg83XBi8yf+6YRtuFwJX0M5Z7eJQmrmd5W0gTO5rL3snyCFzui2a5F6nUl8DxOXD5r5rlkihliSFwpQPM7dk8QZO2GAK3bKD7NSFjWcukvC0f5H7tSZqyzRK42TTUKj9hVVDnwJUNcW4vrdQSuEWUZi1btp5yOitlljkFblWq5zUmfbklcAWUbi0rKzR+7pJFh2J0DlxmZqY8v41vJM0S9+KLL9Kf//xnh7xt2rSJPvnkk6DPgfMlcAyCIAiCxHOiJnDW9GmnkV/RqTWDqJPsKB+R06i+BM5GI3Ce11jg5tEES9Ic9KKlh1dTReaj5u8v0lJT4ErfMcp0HpPrewROXsQwiVLM7XUeWygEroiyOxm/O3mNlvkVuG9psna9N2k5C1zxm+bv7WnKjsAXMbjlzSKt1Clw3rxDK02Bc8ubRfpyp8DZxEDgeCSNL1DgG+/yyBs/g/fgwYM0efJkOZ3K8saPdtu8eTMNHTqUBg0aROXl5WK9OmUaFQKHIAiCtK4E3VPxOXB8H7j58+fTypUrQxQ4z/Rp1hq+CnU6ZSnTqD4FrkMKbXNMoSoC13Eobfc5hfqlZ6Qul0fhspTfWeDG0xD5+2OUvdHPFKpW4NxTqDn266kFoUyhzrRH3IYW76K9E9ob6yT1oTLzKtQyZUpVkjyS9rPA7RxFXeSyDjR1pzGFuj+7g1EmZZFT4FJyjSnUZe+Y23mKcvYIgdszhrqav0+rNKZQf5rSySgztMApcELcDsbwHLi6uhp5a5BZs2bJkTeWuH379snj0S1v3333nSlv/m8jwpmV8zn16NGD+Ea+DzzwgPn9GCAIgiBIPCfonoqfGWmNVvC0VUgCN/ePZsf4HBWatxHZOuphY5mcRtUL3KAF7nPg1ClU5zlwOzLbme/hxBC4NbTUHHHjaVR7+vSpDNrp7xw4HwK3a+zjxvouAglcZdaTXuswLHC6ETifAlf6lnO5SufRdMAxhWqdA5erLBMCt6y/cz2VLmPpoGMKNbYXMVgSx/d4mz17Nr3yyis0evRo+vnnn7XyxlefBrqRL+f6xZ9pxIgR3p9fgCAIgiDxnKgInPPqUzc8jdpMgVv0gr295MwFmhG4NXR+/XBKlstepCGmzA3JDXARgxC4XV9asvY4ZW/eSJeWeM6J6zy2JPgRuMI37PW6jC/zGoG7tv0Tc1TN+xy4fRPN0TlT4OzRtqS3qEx7EUNggTsw6SlzG/1plfYihvgSOL6YgSWO7wPHEte7d2969913HfJmnfcW6FFaEDgEQRAk0RMFgbOmT/3w1qhmCdx2a/St3xhjCnV9uilrisCpo3CSF6k0lKtQ+X5wxzd6Rt8GTDGmUDd/YNwyROBP4OzRt0EzjSnUbSNsYZMC57qFyNAS3wKnjsB1yS63BW5/9tuUsys4gVNH4LpO3mQL3E9TBtBXe+NT4BpNieP7wM2ZM4defvllZeTNkrfAz0KFwCEIgiCJnpYXOHv69GEat8b5JIbCt6wOszsVRkLgNKgCd96+8lTwznjtbUT0vEql5o18fU2fMpbAXSl4zbGcL2LwNX3KGALH94HzXImqxRK4C9/RVOXKUg8dgxe4KxtpWhd1XYtOQQjcNvqqq/Fat5wdhsCtHGyuP4TWSIHbSdPNMknpyyIicMbD7PmZqDXyViF8talxwQLftNeSt+AFDufAIQiCIImaFha4qTSuvdkpth9IW9yP0rJuJyIYNL8558CpV6E+ShPWa6ZQGXsaladPg7uRb+cvC8n5KC31KtQnaNJm7ylUfhKDejWq91WoT9KUba4pVOVJDF7nvkn6Utl5/7cRSUpZGPQUqq/biCQNXRLEFGosBa5G/FxDdbU1csrUGHnje77xA+1DEzhchYogCIIkalp+BM68jUg8PAvVvp0IX7zguJEvnoUaz09icAucIXG1VC/krZ7lrYnlDQKHIAiCtJ20CYFznvtmjb5B4BJZ4Hgq1XqYPQQOQRAEaWtpcwJn3AcOAgeBg8AhCIIgiZs2IXD2OXA+n4UKgYPAQeAQBEGQxAkEDgIHgYPAIQiCIAmWoHsqfqA4S9yuXbvkHfAhcBA4CByCIAiCxCYh91ThPsweAgeBg8AhiP9YfygHAz+fWs2BAwe05dxwOTW8HV05HVeuXDHXImpoaNCW0XH48GFzLSMnTpzQltPB72MF3483+H78E+vvpyUDgYPAQeAgcEgUw51PcXExZWRkyGOPOxUr3AFYx2QgFixYYK5lhB8vpyvnhsup4e3oyulYvXq1uZbRcevK6ODPqmbs2LHacjrUjhTfjzf4fvwT6+9n06ZNcnlqaqp8DKRbRpuToHsqy1wxhQqBg8AhSOhhcXv//fftY87i+PHj4ni9Lf845vbV/bov5s+fL9exCKWDUdfj7ejK6Vi5cqW93unTp7VldPB50+p7fvnll9pyOvh9rPXw/XiD78c/sfx+uF4vW7bMqwzLHPtUcxN0T6WaKy5igMC1BoHbt/N7Sk9Pp/vvv5/uvvtuCBzSYuERN7UBV6moqKC6mutUde0M7d35Iw3p/xoNGeCP1yWlRQup+vpZm48/SLNf8/CGk4Fv0McfplP1jXM2pcWL5HIPb1KKDzauWyHagvOS08cPmsv7UMog/2SP/5xqbl4QXJTMn5Mjlvf1S+qgtyRnTv5CtVWXJPsrt1HqYLHci7e9WLY0X6xz2eaTj/5Leb0fpQ7R88nHf6La6is235YW0NAh7wTFpg3fi//La5Kzp3+loSn9/TDAZnL2OHkMWCycP8vxuk0qM9DB2TPHqb72huSn/bspTSzzMMgny5eViHVuGtTdpM8+/YjShg4OCJerr6u2Wf5tqVg+RJLuJs0iRbJl80ZqqK+RnD932l7uJNWLqVMmySfuWHz99QLRdovX0od6MczFhfNn5aMWmUMHD4hlaf4ZZrBixXJqbKwXNEhGjRoplqcHYJgoN0qUbxT9laCpkebNm6et98znn3/umOINNQkscMZjtQYviqTAZdOQpJepFALXJgQOD7NHWjrcOHMjrTbaTNqQN2jJ3FH0y45F3u2mV9vpaT89bajZjrraUmd7qraparuqtK2aNvYMt7Fefyibfyx7/cGstrlGu2u3vV7tr6cNdrbDzrbYQrbJXn9Ye9pmr/bZ1UbLdvo4t9MWVnuta7PVdtvTdnvab7UNN9txr7Zcbc9dbbq7XZdYbbuzjXe280pb727vJQdd7b7Z9rvaf2cf4OwHJFfV/kDtEzz9gr5vMPsHRx9hYfUVrv7Cq8/w9BuOvqNa9B2M0oc4+xG1L1H7E1efovQrBqJf8epfzD7Gq59R+xqjv7H7HK9+x9P3OPufJiGP9bRp00Ypd+62YMCAAY5p3lASHYFbPYA6KZ1jp5HT7UaHH2g/aF5wAlf0thC2he6GJRyBGy9ETe2wX6JSCJyfSgqBQ5Bw4pa3Hs//B323dKKrzYTAQeA8bbyznYfAtQaBU/ugY8eOUd++fR3tAktcOCNxLS9wUt7+SAXKCFzhyEG0NVYCl/ui6KAfo+wNSqOx8V0aMiZfNAwQuLYkcJhCRVoy7mlTPufy6E6rvYTAQeBUefO08RC41i1wjJxanTvX0T7whRmhJjoC134AbfGaQp1OWR3UUY/uVCgama2jHlGW9aAi2bjMofEd1bI9qFhOob4g/rUalPk0QSmTnLlA04BkiXUeNeXN2WgYDYVT4HZ++bjynq9SqdI4LBvgea+kATl2Y7BsoLJ84HSlAYDAxZvA4SIGpKXCf02rJz3zsXZ8j9peQuAgcKq8edp4CFzrFzjZD925Q2VlZbJ9+Pd//3fKy8sLeRSu5QVu71Qa1150in0/cQmc0eg4R+BmUNZbQ2ir2dDwiFvy57PthsU5AqcK3Dwpb8mZ883G5EuaoBM4Hn17ajjt1DQa3gJXQNn9/0S7zAaitH8SdR5baDQMS16lpE7v0253Y1Dwmlj+Ie3BCJynEkLgkDYaboxzc3Pp9d4v0ZGKryFwEDhPuw6BU/qMtitwTGFhIV24cIHuuece+vTTT83WI7hEQeCMBqigr9k59v3Mj8C5GpoFPSjp7dF2w+JT4NalUXLHNNrhaEw0U6gscO9kaRsNb4FzNRD5QtoGTDYahs3vU+ek3rTM3Rhs+VAsf42WQeA8lRACh7TR3BGNM1+NdurgKtlWQuAgcBC41ilwt5oaqLa2lurrxGshChz/zO3Em2++Kfue3/3ud2YLEjhREzirASpkkevg5xy4+c87OtKgBG7RC5TUb4yrMYmAwOW/7NwXS+C4YSjobS5nkVMaAx6Fk8uFyEHgHJUPAoe0pfB9oG5eOWbIGwTOBAIHgWtdAmfJG98rt7q6murrDYkLVuC4P+L7xfEDErjv4fOx77vvPqMRCZCoC9ypfV9RVoeHKes7jcCxvHXwTKEGPQLHAhfMCFwo58DlCXl7yjOF6hiB44bBahBY5Dp9SLsdjYFoAAp5OvUj2gOB01Q8CBzSepOdnS0vYDh16hRdELIBgYPAQeBap8DdEtTU1MgrS/mK85kzZ9LNmzelxIUicHy6xYQJE+ipp56i5ORkuuuuu+jBBx80GhQ/aXmBm/tHGjhXEbg1g6gTX7CgjMB1GjVdNjbyAoa3RtkNDQubW+CSR88RjYhL4H4eI34WcrfIakx8nAMnGo+KLx4VHXTgq1B3jnmckvpn2w0EnwOnFbjNH1BnncBt/bNYDoGDwCFtLdYxxRzduRACB4GDwLVCgWtqrLPl7YMPPqCnn36aevbsSbNmzaLr168b06miLwpG4Dh93+hltxu/+c1vZD/0/PPPy9d8Jeieip/fxc8jY3mbNm1a8AJnXcRgd44PU9YapdH5brB5jzi+CnWG48rUQW87R+DOrE2lZPma7ipUQ+KsdQfn6kbgzIZD3krEUzbpqXdpp3sEji9ieMpTJqW/MgLHFzHY6z9BkzabjYE9fWou36o2ABA4CBzS2sMP67aOqV69etntZLACV9DHcwxadPpsagsJ3GgaZL7HoIUtJHC5vTyfpeNwqvASOM89OYcsjobA5VCK+X4pBf4EbjqlmuVSCyFwEDinwKkjbyxvXNcnT54sR+FefPFF+czTq1evSokLVuAG9/dctX7//ffb9cZfQu6p+LwOPMxeGYHT/jXn/CsOAgeBQ9pG+A9d65jim3MGL3BTaKzjD10PERG48iHGH8odUmhbFAVu6TvqZ3mUJq6PQ4GTF5+JZZ3+THsgcK4+AQLnFrgmgVveFi5cSOfPn6eDBw9KiXvllVekxF2+LPZZjsSJfiiAwPnqj5555hn5ui4QOAicUlkhcBYIEk58nWoSUODm/tE+9gbOVdrO1QNoYAQEzr6/pkPgFJQ2NnICN9acFXmUks17dCZn5sZY4Lzb7D3jnjC+Gwicpk+AwKkCx/LGFyy45e3AgQP08ccfy1G4ffv20ejRo+V9IOfMmUOXLon9l1enssSFLnB8exFfgcBB4JTKCoGzQJBwEnGBc7WfW0Y+7DhO1Sv6T+0fSQPN5YPmjzJG1zoMoay3lPIm8v6aXiNwmfbvgxfOcdwYffAiVeCM+25aryVnptunr/CpK3bba02f8tSp+nNAgctznL7Secx/ecrkedpm543WBU+9R7vsNnqKMtJm/tzpA9rtGoFz3HjdpHNWqUvgltHkTp7XUwstgZtplxlaVEZTkq0y7WnKdtGmFxu3hZAkf0r71Ha9pI/nNUlfKoPAxb3AWVeb8iibKm/vvvsude/enV5++WWaMmUK7d69mzIzM6lPnz5UVFQk12toqLf7oFAEjvGVoHuq8M+Bg8BB4OJT4FYtWyAr2EMPPUT33ntvUBUGQfwlbIGr/JgGKMdfknz8oFPg7HtpesEXhTkFziZMgfPGPN/4kFPe3KgCt7SfsSw582s6v364ef7yozRxgz+Bc8qbG0vg5EVlmteNJ+Y4Bc4mTIHz5g1a7hK4YOgyYZUPeWMgcIkgcHV1tfJWIXPnzqVFixbR/v37pby9/vrrchlfSfrqq69KiauoqJDLysvLxXp1sRW4yN1GBAIHgYsPgcPD7JFIJ3yBE+3m6v7mBV0K8jGEov1cPdB+beA8cwpVXtFvLOMr+R0C12EwbQ04hepH4N7ONNpZvkWTXNaOJqwVbe3aNFPEeFTObHMX9TTLqALnmT6duJ7b3q9pojWN+oUxjaoVuI3vGuejyd9Fe8ztct5L8ne5jAXuxz/ZZVLyzfZ503v2ss5ji5wCJ5+aY7XX3ufABZpC5UciyinUwjeM35OepMlbXQI3aKZsz/eOb2+WSaKhxdymr/CMzA2eI9v0fRPMMsmf0T67ffe08c52HgIXTwLH/Q2PpvE5cKq8lZSUyOWnT5+miRMn0muvvUZTp06Vv/PyxoYGRx8EgYPAeVdoCBwEDolpmiVwVrvJz49Wj0d+DOHc54yfOwykrbINNdpReWN0Xv7WSIfADZrvbFNDFTjn/TbNZYtEW2sLXU8qsdvcBfaonC1w9tWnvWip2f5WZPItnMSyp4xpVK3ALbZk7SUq5TZZtsv59qicFDi+R6fcjnKfTtE+26NyA6Y4BC6lgNvq8AXOPgdu68fURS7zFrihRWZ7XmRNm75Jy802vWywUcYSOP30KQQuEQTOunUIyxvPSKryxqNzfK4b3/+RJe6NN96gnJwc+XtzzoFjfAUCB4FTKisELlCFQRB/iYjAmW2nZ8r0jzTuM/PctxgL3PbR7Yzt2DdOZ770OgfOmj7VY0yj6gRu55jHjDLWrZ1ku8y3dzLLCIGT9+iUZRJU4CRzaai5rkF7mlIBgYt3gWNRs86B41G2pUuXymXy6Qui72lqbJA/nzhxQt7Q+5133omPc+AgcBC41iZws3I+px49elC7du3ogQceCKrCIIi/hC1wc/9InT6bohc4nkYNMIU6cJ7zHLiWH4Hj380212sK1Zo+9YP9SENfI3D8uylwIU6hpixxngMXnwLHcLvuEbmhSyFw8S5w1jlwS5Ys8ZI3q+9pajIk7vjx47Lcxo0b5TlwjULuIHAQOGelhsCFLXDhVBgE8Zdz587RggULaP78+bRy5cqQBE49/lSs+8D5vIhBXonqX+Dcz5gOfBWqD4EL5iKGXEvo+Pw3tf1do9wX7kUq1Qlccy9i6MRXooYmcM4bsOuuQo2swNnnwDnACFwiCBz3N/X1xkgcSxn/7Ol3PH2PJXFWOUPePH2QTuDCmRGCwEHglMoKgQtUYRAkmLhvtxRQ4LyuQjUwHkPoaT+9JK7vZ0pb6kfgBPzYQmu98AWO21v1qTftaMI6dQrVcz5cUsdhVOFofwXKU3CG5OoEjm8jMtFeJh97+KNzCtVqm70krj8/Kcdqo0MQOIF6NWr0BY7lzdPGO9t5CFy8CRzT0CCQI29qv+PpeyS3muTFC1LeXH0QBA4C512hIXCOSgSBQ2KV0AXO+xw4T9vpaT89bajZjrraUmd76hQ4T7uqtK2aNjbUG/mW2Oe79aQS0e7aba9X++tpg53tsLMttpBtssAjatZjDo222at9drXRsp3Gs1A1fQAErrkCJ/scr37HKXCe/se7D4LAQeC8KzQEzlGJIHBIrNJ6Bc73FGpy5gLZ7jZP4HxPoXYes8TRNkPgIHCtSeDCuS8pBA4Cp1RWCFygCoMg/uKrnWzdAvcoTVjvaXcjL3A8jWq1yxA4CFzrFLhw+iMIHAROqawQuEAVBkH8pfULnLu9VdvcSAic9xSqs12GwEHgIHBWQu6pbt++7ZgagMBB4BJV4D7I6CcrC99G5P777w+qwiCIv0DgIHAQOAhcXAtcY2MjBA4C56mQCSpwg/v3tisMBA6JRCBwEDgIHAQubgXul19+oZkzZ9KhbQsgcBC4hBa4Hv/5H3aFueeee4KqMAjiLxA4CBwEDgIXlwLHj4+w3mDRjBEQOAhcwgrcpUuXqH///vJY7tixo6Oy+KswCOIvEDgIHAQOAheXAldcXGy/Qd83etGvuyBwELjEFDi+zQNz9913e02f+qswCOIvEDgIHAQOAheXAsePibHegMkZ/56mMYLAQeDiW+Cs8zgffth8QLgGBAknEDgIHAQOAheXAsfhJ+xbb/L0v3WjXevnuBojCBwELn4Fjh9GPHfuXDn6plYQNwgSTuJP4EbJx2MNmh9JgeNHafWkEggcBA4Cp/Q7CSBwV65coe7du9tv1PeNF+lIBTdMEDgIXPwL3KhRo+Rx+/jjj9Nf/dVfOSqJCoKEk2YJ3Or+1Ek5Bo2H2BvtJz8DdeC84ASOn3mqexZq6ALneQ6qwQtUDIHztOMQOE//AIFz9D1xK3ActZFiejz/H7Rx5XRPQwSBczQCELjYC9zFixcoNTXFcdz+7d/+raOSWCQnJ5tHOoKElsOHD1NGRoaUt2nTpgUvcFLe/kgFyghcwWcDaEusBG5hD1EX2tGEtVY7K1ibRoNHz4PAQeCUvgECFymB27fze0pPT5fnZPO52Wqf5CthDzWoFzRYjPwoRTQwRRA4CJynEsaBwBUXFdEzzzzjOFb/7//9v44KooIgzU3Iz0JlgWvfn7YoAme0m1NpXHv1+HyOCkUbunWkev5mdyqUbel0yuqglhXL5RTq8+Jfq12dReOVMsmfz9YIHI+8sbyp7azZ1mpG4HZkPqq8p1iuCNzSdzzvlfROlt0GO5ePh8BB4Nq8wLXow+x1+fbbbx0d49SpU6m+rppuXD5Kp39eR1u+mymYZTLbZI5BOTNXcqiiVFTGDYKNkh3rv6a/rJ1PW9cuMFlos23tItq2zmDnxjy7Il4WFfCXPSto2w+Ladt6g+3r80zyTZbQ9g1LaIfgxMF1dgW8cHwrVWwsooofVYpNSkyWUsWmpXRg5yq6ZovVPvpl71rauXkZ7dyyjHbZfGuyXLJ7Sxnt/ksZXTmzl25eNCrZhZN7aPfWlYJVtHubhz3bVpusMdj+HZ04vMOuaFy5Duz+gSp3fG9Qway12VuxzuQH+qnyR0/lEpw6Vkl7d20w2Uj7dv/oYpNk/+7NdPHsYaNSCW5ePU37K7fQgcq/CLbSgb3MNhfbJb8e3k/1VmUSnDrxM/20f6fk4P5ddPAAs9vBoQN7JLVVV+1KdPP6ZTp0cK/CPjp0aB/9fGi/yQGbSxfOeSqP4JefD9GWLZto4sQJ1KtXL4e4Mf/n//wfuuuuu7QVBaNvSCQS+sPsp9BYFrU+IzR//LpH4L6irL6DaKs5Ascjbp1GTbf/IHaOwKkCN0sKXvLns8w/jkfTeJ3A8ehbx1TaHtQ5cPNpQr902mGOwJX0Mx5qLwUut5fYzjCqcI/A5b5ISU8Np50YgTP7EQgcBC4GAsc5cOAA9e7dW3aUDQ3iA9y+LRuvvXv3enWcvpg3b568KtDi1Vdf1ZZzw+XU9Xg7unI6VqxYYa936tQpbRkdPDWivueYMWO05XTw+1jrVVRUaMvowPfjH/f3o56jqfLUU0/5nDZl7rvvPvOoRpDmJXSBM049KehjHo99hcj5FDjXFOq87pT01sjAAleeQp06pNC2QFOoLHBvZwpZC24EzjGFmtuTkvqNNQRu/TBKTupFS90Ct2G4WP4ilULgFHmDwEHgYiBwHBY3PvdDzYMPPqjtRHU89NBDjp1t3769tpwbLqeux9vRldOhniTId+HXldHBz81U3/P3v/+9tpwO9W7/PM+tK6MD349/3N/Pv/zLvzheZ3H7+7//e78XLfB7I0hzw7daWrBgAc2fP59WrlwZssDJ0TcBC1tSez/nwM17znkMByNw858XYjZaCFuEBW6RkDZ1XyyBs0bh5HJL5IwpVDkKJ5dbIgeBg8C1bYGL2kUMwWT79u3yDvfcoQfCvbN8fpKunBv3eUy8HV05HQ888IC9Hp8wqCuj4x/+4R8c7/m//tf/0pbToZ6YeO+992rL6MD34x/398P7wMtZ2tTP4QuMvCGRSuRuI8Lnvj1M41ZrBI7lrYNnCjXoETgWuGBG4EI5B47lraNnCtUxAsdY5yDL6dThVGEJnHUuspxOzaCdEDhb3iBwEDh3n+YrLSZwatSRFQDiCQSJZMIWuLl/pAFzFYFbPcC4KlUZges0MkcKnLyAoe9n9hQqC5tb4PicOO9z4EaLn4XcLbAEzsc5cAe/pe2jeSQ98FWoOzJFuX5f2lOofA6cVuDWD6dkncBtyKDOEDgTCBwELg4Fzso//dM/OXYKgFjwu9/9zjwiESSyCX8EzryIwT5OPaNvktUDzXvE8VWoXzmuNh34lnME7vR3g82yuqtQDYmz1h20QDcC961xtf8ivpWIp2xSxzTa7jWFOp8mdPSUGdxPGYGzp0+ZR2nienMK1Z4+ZR6j7A2YQoXAQeDiXuAQBEFacyI3hcooAhf2kxhY3CxCuA+c1+2aGGsKFY/SgsBB4CBwCIIgrSgQOAgcBA4CB4FDEARJsEDgIHAQOAgcBA5BECTBAoGDwEHgIHAQOARBkAQLBA4CB4GDwEHgEARBEiwQOAgcBA4CB4FDEARJsEDgIHAQOAhcOAI3K+dz6tGjB/FN6N03oPcVCByCIEiEUlVVJSVu165d9PPPP0PgIHAQOAhcUAIXs2ehIgiCIJ6E+zB7CBwEDgIHgYPAIQiCxCgQOAgcBA4CB4FDEARJkGAKFQIHgYPAhSNwOAcOQRAkhsFFDBA4CBwELhyBw1WoCIIgMQwEDgIHgYPAQeAQBEESLBA4CBwEDgIHgUMQBEmwQOAgcBA4CBwEDkEQJMECgYPAQeAgcBA4BEGQBAsEDgIHgYPAQeAQBEESLBA4CBwEDgIHgUMQBEmwQOAgcBA4CBwEDkEQJMECgYPAQeAgcBA4BEGQBAsEDgIHgYPAQeAQBEESLIcPH6aMjAwpb9OmTYPAQeAgcBC4oARu387vKT09ne6//366++67IXAIgiCxCB5mD4GDwEHgQhE4PMweQRAkDgKBg8BB4CBwEDgEQZAECwtcQ0MDnT640sOhlXTm0CqF1XTmZ4s1krMWvzDfKZQrfO/kMLPW5tzhdXTuiMUPTo7+QOcl611sUNgoBErwq5sfDY4xmxQ204XjTi4e36LwF4WtdPGEwSUH2+jSSWa7zeWTOwxOualQ2Gmyy+C0kyund9OVMxZ7FCrpytlKuupgr8I+m2tn99O1c24OGJxnflI4SNcuOLl+4ZDCzwq/iE5bz41LhxWOeLjMHPXi5uVfFY4ZXGGOO7lqccLkpMG1k1R17ZQPTttUXztD1deZs97cOCsk7pzCeaq5aXFBw0WFS1RTZVBbddlJNXPFpq76KtXVWFzzol5y3UntDYWbBnVuqgzqq6ihvlqhxovG+lqDBqZOoZ4aGw2aHDSIP+iYRoUmG24r9u7cgClUBEGQWEU9By4rK4t++uknAAAIyIcffoiLGBAEQWIV9SrUYcOGmVOoAADgnzFjxkDgEARBYhUIHAAgHCBwCIIgMQwEDgAQDhA4BEGQGAYCBwAIBwgcgiBIDAOBAwCEAwQOQRAkhoHAAQDCAQKHIAgSw0DgAADhAIFDEASJYSBwAIBwgMAhCILEMPEkcEve5Mb/H2nsCv3rTDBlApNNY9snUadPsjWvNR/ex5baNgDxAgQOQRAkhok/gRO8+aH29eMr+lEn2UGEKHCzn6Wk9v1os70MAgdAc9mwYQP16dOHHnroIbr33nshcAiCILEIPwu1sbFR21BHCyk+bz4rJO1ZWqJ5ffMn/yhE7B/F6xA4AGINtxd4mD2CIEiMEymB+2X7PO3yYDDE50MfcvUhDWBxm82jcN4CZ4/eSTwC6FwukKN7HoFTX9dJl5RGZX1dGcd7iO0bn0MpxwKpbGPAbOf6ACQiEDgEQZA4SCQEbtcPX1Gnjo9Rvze6a18PhC0+XiNmAmuZnEZ1CpwUKGXa1RipU9b3MQLHHY0tU1KyNNt1jAayRDrlTJZxv5daxr2/4vexEDjQCoDAIQiCxDBVVVXyPLhdu3bRoUOHtA11MFjyxufD9HjuD9oygfCMXBmi5BmpMoRL/q4RIu8pV3O0zirjS+Ac59q5plU1oiiRgma+n48yns9hldFPCQOQyOTm5lKPHj2oXbt29MADD0DgEARBoplIXMSgyltkBM4cRbMES5UgtzSZI146HKNrGoGzJUu3TBU1FfX9fZRxCJwli2J/nO8HQGKDq1ARBEFimOYKnFveIiVw6iia94iWW+ACjHDFVOAsjFFFh1gCkMBA4BAEQWKY5gicTt4iJ3DW7/2c06FugXP/riMcgfO1XXVb2jK6bXtwjCwCkMBA4BAEQWKY5ghcz+5/8JK3SAqcIUiiQ1CFRyNNvJ6XoL2p/O41UhaEwAm8t6s/N08tY121am9HvLc64ia3CYEDrQAIHIIgSAzTHIErnDeCRn7wthcrCzK15QPhJXCmIDmmHP2MeqkdiHOaUnldypO3rOmXmcLlc7uM8715fcfnsCTUwiGEACQuEDgEQZAYJhIXMQAA2h4QOARBkBgGAgcACAcIHIIgSAwDgQMAhENcCNy5c+eouLiY3n//fcrIyKDevXvbOwVAS8PHGx93TF5eHp04ccI8MhGk5QOBAwCEQ0wF7vDhw1LauAOdOnUqbdmyhSoqKujUiSNUff2Mwlk/nPNwQ0/NjfMBuEA1N31x0Se1Ny9RbZU/LvvhCtVW+6au+qofrlFdjT+u+6eWuWFT78VN39RVBaDaQYNFPVMTgFo9DUydg0Yt9d40qjRoOXfurDzumJkzZ1Lfvn1pwIABsmNFkJYOBA4AEA4xE7gFCxZQ//79pbTdvHqSLp3YQqf3l9DJvfmCJSYFdHJfAZ3aVygoolP7mWIJlz19gFlqUkqnfyqlMz99Y3Bwmc3Zg9/S2UPMcpMyOvtzGZ37eYXJSjr3C7OKzv+yms4fZtaYfEfnj3xHF46Um3xPF44ya+ni0XV08VfmB5P1dPHYerp0bIPJRrp0nPlRcvnEJsFmky10+eQWunLyLyZb6copZpvk6qntdPX0DpMKunqmgq6d2Wmyi66dZXZLrp/dQ9fPMZUG5/ea7JPcuLDf5IDBReYng0sH6ealQyY/083LzC+SqsuHqeoKc8TkKFVf/dXkGFVfY45Laq6doJrrzEmTU0KMT1HtjdOCM0J2mbOSupvnqK6KOW9yQUjpBaqvvmhQc0lwWdJQc4UaapmrJteEEF6jxrrrHupvSJrqb1JTA1NlUk1NjdV0q7HGpJZuNTF1dLupnm7fYhpMGun2bcGtJmpqaqSDBw/S8OHD6fPPPxfC2GAetQgS+fAMBLeH8+fPpxUrVmgbagAAcBP1Z6Hyc/941G3evHly9OeCkKATlXmSk5UsbxA4CFzsBO7O7SbJ7du3pMiVl5dTamqqPG4RpCUTiYfZAwDaDlEXOD7PaMOGDXT94i9Syk5ULobAQeDiTuDuCIG7c4clrkmOxrHEYSQOaclA4AAAoRBVgZs9e7Z8ej7L24k9uQKWNwgcBC5+Be7OndtyNI5H4vi8OARpqUDgAAChwINhffr0kU9fuffee1tO4PiCBT7nra7mhhQyCBwELlEEjuGRuI8//pj+5m/+hj799FPzqEaQ5gcXMQAAwiFqFzHw1Clf5XdeCJAhbxA4CFx0Ba5JCFxtbS3V1dWGLHDMr7/+Ss888wzddddd9Lvf/c48shGkeYHAAQDCISoCx/fV4lsz3LxyTLzp1xA4CFzUBa5JwPLGFyNUV/MtToTEhSBwRHfE67fpvffeowceeEBWkPvuu884wBGkGXELHE+jAgBAIKIicHyJ/Lx58+iCEBwIHAQu2gLH8lZTU0PHjh2TtwXhe73dvMn3tGOJC17g7ty5I2/z8Nhjj9mV5MEHHzQOcgQJMxA4AEA4REXg+LYhfL83ljUIHAQumgLXKLDk7YMPPqCnn36aevbsSbNmzaLr16/L6dRbcjo1sMBxjv5SSd26dXNUlOeff16+hiDhBAIHAAiHqAgcX73HFzEY87bBCNxUGtfesyMqnUZNj6LAZdFg832H5MaLwM2koeY+DS0OIHBL+zq+O0nnUbQ/0gK3fIDyHgNp9fUCSjd/H1YWS4HzjLyxvPXq1YsmT54sR+FefPFFeVX01atXjXPighS4i2cPewkcgyDhJp4E7tChQzRlZB5t37ZD+zoAIH6IisB1796dbty4ERGBY1jiIHD+BG41TUl2fmc2kRa4vWOpq+M94kXgnCNvLG8LFy6k8+fPy/u6scS98sorUuIuX74sJK6Obt1qCChw1y/+LCuL5/Ma8MUNCBJO4kXgZk8S9fZfv6G0J5ZSSvtlUuT4nFFdWQBA7ImKwPHG+TYM4Qhcp5E55hTqZzTQ2rm3RkLgBL4Ermyw+T0Jukxco0yhltPUIREWOHv0bYAQt3iZQq2WFyy45e3AgQPyViA8Crdv3z4aPXq0fA7vnDlz6NKlS/ZIXDgCd88998jXESTUxFrgfli3gd7vXijFLXtEntifSpo+Lp/SOi2ld58upm9LV2rXAwDEloQUuIHznFOohW95dpoZtMASuEwaZC4bvGgOTejoKTN4kVPgdmQ+ar8meSfLJXC5lP2U5/Uhiy2By6Yh1rK8AqXM45S9ScjbklftdZI6vU+7FYFbNtAqa/EETdpqCdx0SjWXpxbONH5OHkF7vQRuhTLa1p6m7Jhrv87y5u8cuP3ZHcz1TDpn0gFb4HIpzVyetmwD5XT2lEtfbgjcqqGeZTZDC4S86UbgttFXXT3luuVMoGFWmZWRFTjralMeZVPl7d1335WjwS+//DJNmTKFdu/eTZmZmfJGiEVFRXK9hvq6sASOQZBwEiuBO3v2LGW9l09DnyyhEa8VUPmatbKeWGzetIVGDTJeHz0kn44cOardTjiUZ3jXn6SkbjTjiL58tJH7l1Guea2cMsS+ZpS7lwMQfeJe4Jw8TFnfOS9icMubxaCFToHz5gUqMQWupJ/mdZfAefMSlboELhg6jy0xBW4pTeqkK/M6LXMJnI1O4IrfNF9neauk6yV9PL9X+L6IoWyIuU0v+tEKl8B5059WhSRwTnlzE2mB45E0vlXI3LlzadGiRbR//34pb6+//rpcNmHCBHr11VelxPG9CXkZP2mBp1EbGuohcEhUEyuBmzIqj1Kf+IYyU/Id4uZm8qdGuTHD8rTbCQetIJVnGHVJK07RBQIHEoEEEzgDewSufDB1ksseoaxyYwp12+ePGOXeznQKnPhdTp8uesHcTjuasE4I3Lo0SjbLJGcuMKdQF9LETJfAvTPemELNfdFc/zHK3ugSuP7Zcgp115ePm2WSKGUJT6EWUbYlawNy7BE45xTqV8qIm0vgOo2gSu0U6mzPaNuEVXL6dN+E9sY6SX2pzNdVqDtHURdzvbRScwp112j7XLauk9Y7BS4115hCXdbf3PZTNK3S3xSqS+D2j7e3PWyFOYW6crC5XuQFjs+B49E0PgdOlbeSkhK5/PTp0zRx4kR67bXXaOrUqfJ3OfpmyxsEDole+AIvvtH58OHDKScnR9tQtwSzsgtoxGvGCNuHLxXSyrI1DnH7Ye0G+qxPvpS3958vpulZ+drthINPQToyg7qJuhRrQYLAgUTg6NGjlJ6eTvfffz/dfffdQfVHURU4zxRqkTLa1p0KWeDmd7d31ouOqbTNMYVqnQOXaUvZ4EVC4Bb1NNfpSSXBnAO3IYM6y2XeAjckzzwHLt+aNn2VSs1z4EoHGGVUgds97gmznBO3wKUW6s+Bs0n+lPZZ58AFMwJX+pZRpvPntF85B25Firm9lFzXFKp1DtxiW8zSl4cgcGWDzDKDabV9DtwOmm6OykVa4Kxbh7C8cceoyhuPzjGnTp2SEvfGG2/ITpN/5xG427cgcEhsYj0LNVrMyymk0qIyKl+zjj7sYYjcl8Pz5DlxEz5YLM+J+9PTxVS4+BtZjsvrthMOvgVJ/9qRGd0cda3bjCOO8urvOgn0lDlCM7oZP8v30WzPKh+KwKnbSkrKoHLlNWt/7Ncd29XvT1K3GXRE3QYAPhjR0g+zj5TAnZpnCdsjlPVdCW0dZY62JT1PhdqLGAIL3I7MdsY2OqbTjmgKXMFrZpkk6jyu1O8InC+B65Jsjbbx9KkpcDs+s0fXfJ0DZ5/7FiWBOzQ12SjTdQIdsgWuJCrnwPEo29KlS+Wy+roa+SzUxkb+uVY+ISQ7O5veeecdnAOHxDyxErhz585JcueUUPofiuWIG1+NOm2saItPnpSvRVPgpKwpAmOIjSpFhkTZ0sVTr6rwmFOxHikzJMmQLuNnft2WMFneef5dKALnLuve/yMzMpRtu9fX7I+1zMf3A4BKggjcdMrqYO2c9whcp1GzbIHb9nkPGr82OIE7F+QUaqQFbvdYc/Rt4DRjCnXLn83tBi9wQ4uVCxjkKBxfheq8hYjzKtT5lMa3EQkwhZq2zH0RQ6RG4MTvUZhCrautlufALVmyxClvysPsmxrrpMQdP35cltu4caMcmWtstG4lAoFDoptYCxyzd+8++qxfHv1ly1bHci5XUbFTjmoPHDiQnn32WXk1N9ct3bYDEbTAydErzcUNUrpMqXOV4W3zyLtzG5YA6uRIFTwDQxp9Y5d1bNuCJc33BRm8bbdcen0X6ucDwA9xLXA6PPeBU6VO5ZHgBS7IixhaTOA0BC9wu+na9k88I24TVhujcBWeUTgvzPvA+byIQV6JGmGBi/JFDHwOHAsbdy48LWrIm1Pg+GH2TeLfevG6UY47IpwDh0Q/LEj8uMH58+fLR7XpGumWQCdwfI/Ece/myX/V5Zs2bpb1pGvXrpSWlkaLFy+mjh07yiea6LYdiKAFzpfIOKRNFTCWJy5v/SuW8Tbs9zLKOqdMvZf53j/XCJrcP2c7YOFPCN0C59wfgS9xBUAh4S5i0D2JwetK1LdHBz2Fat1GxC1xyZlft+wUquMq1Cdo0pbQp1CN24jsdtz3bWiJEDjzSQzqcosu2eX2bUS8JC5lkRA33W1EmitwfBuRInvKNCkpmaaL/7uWmkK1nsTQUF9L9QJD3rwFjh9mzzfv5YsXGgXBPIkBAodEOrG6CpUFLn/hUoeo+RI4Pke0srKSfvvb38qLfnj96dOn05AhQ7y2Gwy+BcklNEEJnCl9vD1b1jxSpxvxcgpTcwXO30iZUV7dVuD9EWhH9gBwEqcCh2ehtvZnoa5Jsw60wbSmhR9m70/gQnmYPQcCh0Q6sRK4Det/pKz38uTVqLt379EKHP+7ccMmOZJdUFAgBY6fa83wPRT5AiE+l1S3fX/4FCS3EPkaieJy7vPexO/lQuQsuWKp6zajXAiSun6EBS7QSJlG8IISOPfnA0ADBA4CFwWB8z2F2i2nogWexACBQxInsXwSA1+ksGBGkRQ5Ho3bWbFTChyfC7e0cDlN+CBfjrzxRT4sbzqSk5O12/aHTpDkKJpGhmRZh8y4JEpZ5lhfypV73QgLnMB7/8T2Mszf3YInhc5b4Jyf23gPL6kDwAUEDgIXI4HjadSWfBYqBA5JjMRS4Cx27twlrzplkWOBm/hRnrzRLz+NgV/nx83x1do8laqyZs0aKXHu7QVCSo+7DvkZcXKXd8qbUkYjeoFkrbkC55Ew/f4ZYmq+JrbJ23YLnDFS6Fkf8gaCAQIHgYuCwHlPobb8w+whcEhiJB4EjuFp0jWrvqecL/Jo+Ter5JXc1muRFjhgoRNKAIIDAgeBg8BB4JAYJl4Ezh8QuJYCAgfCBwIHgYPAQeCQGCZRBO7ll1+WwqYye/ZsCFyzgMCB8IHAQeAgcBA4JIZJBIFbuXKlFDUdPXr00K4DAGhZIHAQOAgcBA6JYRJB4AAA8QcEDgIHgYPAITEMBA4AEA65ublyBLxdu3b0wAMPBNUfQeAgcBA4paIEqjAI4i9VVVVS4nbt2kWHDh3SNtQAAKBjRPw9CzWQwI2kQfxAewgcBA4Ch7SSRPth9gCAxCeOBe4TGujYKSFtEDgIHAQOaYWBwAEAQiU+BW7uH8VOPEzj1igjcN8NooHyYfYQOAgcBA5pHYmnKVR+/ykj82j7th3a1wEA8UOcngPHI29C3lYHN4W6ddQjyo73oCJF4Ire9nygpLczbYEr7qcs7/clBA4CB4FDYpJ4uYhh9qQCSv/XbyjtiaWU0n6ZFDmWS11ZAEDsic+rUHn0rf0A2hLUOXAzKOutIbTVHIFjYUv+fLYhcAt7UFLHVNruHoFb9IJYnkY7MAIHgYPAITFOrAXuh3Ub6P3uhVLcskfkif2ppOnj8imt01J69+li+rZ0pXY9AEBsiV+B6/uJ+DmMixgWCGl7e7QhcGtTKTmpBxW7BW5tmlj+ApVA4CBwEDgkxomVwJ09e5ay3sunoU+W0IjXCqh8zVo6cOCADT/IftQg4/XRQ/LpyJGj2u2EQ2gPi29pzIfRux6m73kIfQaVK8sBiBdah8DNf96x47bAWaNwcrkQOUvg+Bw4HoWTy3sKkYPAQeAgcEhsEiuBmzIqj1Kf+IYyU/Id4uZm8qdGuTHD8rTbCYf4EjgN5RmiTkPcQHwTpzfyDeEcOJa3Dp4pVMcInIm8iGERT6cOpe2WwFkXMSzqKZan0w4IHAQOAofEILESuFnZBTTiNWOE7cOXCmll2RqHuP2wdgN91idfytv7zxfT9Kx87XbCISEEzjUiB0C8EbdPYtjy2cNiJwJfhSovYHhrlD2FKi9a0AkcT6fqBG5dmlgOgYPAQeCQ2CRWAjcvp5BKi8qofM06+rCHIXJfDs+T58RN+GCxPCfuT08XU+Hib2Q5Lq/bTjiEKnCyvF3XXCNjR2ZQN/s1gWO7nofFO7bhkDPnA+U9U6cmYnva/ZXvi1E6EDviVuCMW4k859ihpA6DaKvuIoYOnjKD3lZG4OzpU6YdTVhrTqHa06fm8nUsbxA4CBwEDol+Yi1w586dk+TOKaH0PxTLETe+GnXaWNEWnzwpX4ulwLnLSsFSBOzIjAyaccQq717fPL9Nt8zeplPgJO4ROM2UqtwP7WcAIDrEt8DhUVoQOAgc0soTLwLH7N27jz7rl0d/2bLVsZzLVVTspP3799PAgQPp2WefpcmTJ1Ntba1224Fwjqh5Y8uWdpSLJa2bIm1OeNseGXPLmolDyIIQOB9iqIomANEGAgeBg8BB4JAYJp4E7uDBgzTu3Tz5r7p808bNUta6du1KaWlptHjxYurYsSPNmjVLu+1ABD0CJ0XLu64xqjy5hdAtcA45Y6QYWhIYjMC59lnzOgDRBgIHgYPAQeCQGCaWApe/cKlD1HwJ3KlTp6iyspJ++9vf0unTp+X606dPpyFDhnhtNxhCEzh/55kZ5dVt6Ubg9AIXygicgNcxlznfA4DYAIGDwEHgIHBIDHP48GHKyMig4cOHU05Ojrahbgk2rP+Rst7Lk1ej7t69Rytw/O/GDZuorq6OCgoKpMBt2bJFkpmZSa+//jqdOHFCu31/BC1wjpEyDRrBC0rgHIIWpMDJcrwvvI9+9gmAKHH06FFKT0+n+++/n+6+++6g+iMIHAQOAqdUlEAVBkGCSSweZs8XKSyYUSRFjkfjdlbslALH58ItLVxOEz7IlyNvRUVFUt50JCcna7ftj6AFTiDLOmRKiFSG+btb8KTQeQtckkO4jPfwK3lagTMuXOgmJE73GgCxYERcPsweAgeBg8AhbSixEDiLnTt3yatOWeRY4CZ+lCdv9MtPY+DX58yZQ++8846cSlVZs2aNlDj39gIRisB5JMyD+rrjth9im/oRuHLHNhyyFoLAGcLo3j8AYgcEDgIHgYPAITFOLAWO4WnSNau+p5wv8mj5N6uourrafi3SAhc9NHLWHBznzgEQWzCFCoGDwEHgkBgmVufAhQIEjjFHArUjhwBEH1zEAIGDwEHgkBgmVlehhgIL3MsvvyyFTWX27NltQuDklC/Xc8gbiCMSQuCOVy6hv6z5imZN+i/atCqHju8thMBB4CBwSKtIIgjcypUrpajp6NGjh3YdAEDLkhAC9+uuPFq66HP649NP0sf/9SZtXDGVTu0rTlCBy6GUpN60LCoCN4+Gmv+ZaaXzKE3+C4GDwCHxlEQQOABA/JEwArdk7qf06D/9nnr1+HeamvUn2rxqGp3YW6QRuNk0np+N2jGVtmkFLpMGiw+XnDkvjgRuGqUqX3xS0uu0PAICt29iB+oycQ1G4CBwSBwHAgcACIe4FLiNZZPoh2UTDb6dSOVLx9PE0SnUof0/0+efj6LxY0fS5C/fpa3lM30LXFI7Gr/WW+C2j25HyR0F8SJwBa+JfX2CJm1RRuC2fkSpWcsgcBA4pA0EAgcACIe4FLj3016hwW93F/ynZGDf5+j5//hXav/k47Rs2TJasWI5ffbxu/TV+Hd9CNwjNH50D0p6O9MlcDz69gJNYIlTBG5H5qPKB+9FS22ByxLlX6SlG4ZTZ+v1dyaYAjeRhiS9RKWKwJX2T6Ih+YbA7frycWWbr1KpVuByKFXKm78p1OnO0blBMxWBm01Dk96ksu2fUhfr9cFzpbyVDVbWSXqLyi7wFCr/awncAjmlarz+Nq0ofZuSUhZB4CBwSJQDgQMAhENcCtzYzwbQp++9Kegj+fjdN6hv73+nju2fkI9zKSzMp88+GkaLZnzsW+DWZtIgcxTOEjg5+jZ6rvGvLXDzaUK/dNphjsAt7cfTqwsVgRNfxlPDaaccfRsvpE1I2uJAAldI2f3fo13mCFzpgCTqPLbIW+B49K3Th7TH5zlw39LkTkmUWmiNwJXRlOQk6jJ+hSJwYv+SP6V9cgRurvx96FLdCJwqcOU0tTOfD2eNwC0yZA4CB4FDoh4IHAAgHOJS4Pb+OId2b5glmE27N86mirUzafakP9GTTzxCaUNT6ItR79P8nI9o/5aFfgRuGW0TosajcIbAzaEJHdvRhLXmNKqvKdTcXpT0zlhF4B6liRs8U6il7wgZG5MbcATOMYW65FVKGjBFL3ADp5nnwWkErvANIXgfU6U6hbptBHVJ/oT22gLXnqZs90yh8shbl4mr/Qtc6VuU1Plz2q9OoWIEDgKHxCTxKHB/2bKVRvZfQiNeK6B136/XlgEAxJaEuYghf84n9M+P/J5e7vkMLZw+QkjefPEaX4nqW+DOHORRuB5UzAK3yJhStc+DUwVuUU/HB3cK3Iu0VDkHbucXjwUncPlC2tRthitwg6a7zoGbKadNl6tTqMo5cPsmtA9O4IYscJ4DB4GDwCExSTwJ3N7KvTThw3xKebKYJn+aR9PG5FPav5bQl8PyaNu27dp1AACxISEE7tjufCrLH0N9Xn2GpmUNp90b5/q5D5wqcMYoXPLoTHv0zUvgWN46eqZQvUfgwhA4lrenPFOoPkfgAp0DF9QIXGQE7kB2RwgcBA6JQeJB4E6cOEnTxxnixs9C5VG3AwcOSNb/sJGyP8mj1Ce+oUkjFssnR+i2AQCILhs2bKA+ffrQQw89RPfee29Q/VHUBe5EZQHtEdL2bd4XtOfHeQGexOAUuDNrUymZP1DHVNoubyPiFLgdme0oqd+X9hQqnwMXnMDlUfZTQtjyTIHLe1l+aSxw8gKG/pPsKVQ+B04vcFtoz7gnxHq+rkI1LmDwfw5cGAJ3cb485w3nwEHgkPhJLJ6Feu3aNVo0s4jS/rWYPn07j8qWrbbFzU35mnWUmWJI3qzsAjp//rx2m8EQ2sPso4P9tAULPHUBJAAjEuFh9if3FtKxyiXy3m8hCZyg+O0kGryIz4PTjMDxRQwdPR96cL9gR+DW0sXFL3m+sP7ZzosYhNxZr6UM8DUCZ94HTt5KxFM+qdNHVOnjKtQu48uEyLG8NUfgBDs/91y5iqtQIXBIzBMLgWMp45G197sX+JU3C37Y/Uev5st1uLxum8EQXwKnf8Zp+YwZdET5PSzKMyipWwS2A4APEkLg8CxU6xy44O8DF8qjtHgKtWv2OggcBA6JUWIhcCxhMycukee78cjap33yqWDxN7R37z6HuJUUfCtH31jcJn60mKZn5bcegTsyg7oldaMZRzSvNRcIHGhhIHBtXeB2jaauSR0pZxfLGwQOAodEM1VVVfI8uF27dtGhQ4e0jXRLwRI2e0oBnTt3jiorK2lmdgEN+0MJfdgjnxbOLKLceSU0ordxIQNf0LBjR4Usy+tEU+Cc05sZVK68ZgiY8rpju56H2Tu24ZCq4KTxyIxunvUFzgfkW+9TbozmCSHsJv9V0H5eAMInNzdXPou4Xbt29MADDziON1+BwCW8wBnnwHn+s1ne8CQGCBwSi8TyIgZV4CyOHDlCuXNK6E/PFVHG08U076si+umng44y0RQ4d1kpUoqAHZmRoYyeudc3p0d1y9zbFGWcUubBkD9VHI338ZS33sc1kocRONCCJMRVqBC4lp9CNYDAQeCQaCfeBM5i8bwSie61iAicpg5Z2LIlR9dcI25SnnxPefK2vcTKLYssVn5G8hwi52uK1bENP+8DgQMtBAQOAgeBg8AhMUybFbhgRuCkJHnXNcZrlE55zS1wXiNr/s57s97T2j+d7DGObfh4HwgcaEEgcBA4CBwEDolhIHAqOoHTyJONUV7dlm4ETi9wfraryhkEDsQpEDgIHAQOAofEMBA4FZfA+RspYzRyFZTABRQrZT987YNjGxA4EH0gcBA4CBwEDolhYi1wfEuQ48ePe0maL4E7depUVG8jIss6JEjIUob5u1uupNB5C5zz4gLjPewyvA3XvhgXNXjE0Hsf3PvpR+D8jiACED4QOAgcBA4Ch8QwsRQ4vrqU7wE38aM8KspfJh+TZYmaW+BY8paVrKBss/ye3Xu02wyGUATOI2Ee1Ncdt/cQ29SPwFm39zBwipbxnvY2GM2omdxnpYxuH70ETt137ecFIHwgcBA4CBwEDolhYilwTHV1Nf2wdgPlfJFHWe/lSWnbLeTMEji+kW/h4m/ka1NG5cmnN1y9elW7rfjDl1gBkPhA4CBwEDgIHBLDxFrgVLZt205zphbIB9rzKFv2CEPqpo9fQps2bqa6ujrtevELBA60XiBwEDgIHAQOiWHiSeAseGp18fwS+npOSbOmSmMPBA60XiBwEDgIHAQOiWH4/LIFCxbQ/PnzacWKFdqGGgAAdIzAs1AhcBA4CBwS28TiYfYAgMQGAgeBg8BB4JAYBwIHAAgVCBwEDgIHgUNiHAgcACAUNmzYQH369KGHHnqI7r333qD6IwgcBA4Cp1SUQBUGQfwlHi9iAADEP7iIAQIHgYPAITEMBA4AEA4QOAgcBA4Ch8Qw8SRwhw4doikj82j7th3a1wEA8QMEDgIHgYPAITFMvAjc7EkFlP6v31DaE0sppf0yKXJVVVXasgCA2BM1gePHtRw/UumDvZITzFEd+/yw38Ovek7+eiAAP9HJY7446JNTxw7RqeP++NkPv9CpE745feKwH47Q6ZP+OOqfU8yvNme8OOab08cDcMLBWYszzMkAnNJzljnt4JyWM96cUznrB+N5j+dVzqucl1y9fF4ez2pFCVRhEMRfYi1wP6zbQO93L5Tixk9e2LOnkqaPy6e0Tkvp3aeL6dvSldr1AACxJWoCV1tbS+ePbwMgoeE/RPh4VitKoAqDIP4SK4E7e/YsZb2XT0OfLKERrxVQ+Zq18rmnFps3baFRg4zXRw/JpyNHjmq3Ew7uB8MzzofDRwLzQfKaB9OHVgaA+CRqAsdvZkyhApC48HHMx7NaUQJVGATxl1gJHD+YPvWJbygzJd8hbm4mf2qUGzMsT7udcJACl1HuWXZkBnUTdahZEleeEVjEgikDQIIAgQMgBPg45uNZrSiBKgyC+EusBG5WdgGNeM0YYfvwpUJaWbbGIW4/rN1An/XJl/L2/vPFND0rX7udcPASOMGRGd2aJ1cQONDGgMABEAJ8HPPxrFaUQBUGQfwlVgI3L6eQSovKqHzNOvqwhyFyXw7Pk+fETfhgsTwn7k9PF1Ph4m9kOS6v2044BBQ4c0TOrl+OstYD6suN6c+kbtRN/usu73yQvde0raaMhdwXpazzdc866jbxwHwQbSBwAIQAH8d8PKsVJVCFQRB/ibXAWRfw5M4pofQ/FMsRN74addrYfDp58qR8LRoCpy47MiODZhyxXiunDFG/PNOr5nlrQtw8ZQReo2saOQuijCFlGVRulzHe31PGen9ln3i77v0BoIWBwAEQAnwc8/GsVpRAFQZB/OXw4cOUkZFBw4cPp5ycHEcD3ZK4BY7Zu3cffdYvj/6yZatjOZerqNhJ+/fvp4EDB9Kzzz5LkydPlhen6bYdCC+BCyBAXN5LoFwCGBGBkyN/mv2Q+2dJne79jWWRvxADAN8cPXqU0tPT6f7776e77747qP4IAgfaLHwcQ+CQlki0n4WqE7iDBw/SuHfz5L/q8k0bN0tZ69q1K6WlpdHixYupY8eONGvWLO22A2GMcql4S5O7jFvgHGLGRELgHKKm4BA73fv72CcAWpgR0XiYPb+RrkMEIJHg4xgCh7REYiFw+QuXOkTNl8CdOnWKKisr6be//S2dPn1arj99+nQaMmSI13aDwWsEzoExZam+rhuB85IlCBxog0DgAAgSPo4hcEhLJNoCt2H9j5T1Xp68GnX37j1ageN/N27YRHV1dVRQUCAFbsuWLZLMzEx6/fXX6cSJE9rt+8OvwGkkKmoC528K1V4PAgfihzYhcEve5A/1jzR2hf51Jpgygcmmse2TqNMn2ZrXmg/vY0ttGwSGj2MIHBLJsCgtWLCA5s+fTytWrHA0zi0NX6SwYEaRFDkejdtZsVMKHJ8Lt7RwOU34IF+OvBUVFUl505GcnKzdtj/8CpxboqTQqXLkR+Ac4udD4AKUkfvmkDz9RRTO94fAgejTZi5iMORM8OaH2tePr+hHneQHD1HgZj9LSe370WZ7GQSuNcPHMQQOiWRidRWqys6du+RVpyxyLHATP8qTN/rlpzHw63PmzKF33nlHTqWqrFmzRkqce3uB8CtwAsdtPES5oEbgzOXWOv5Ey38Zc/+s9xc4L07wvV3vfQKg5Ugogftl+zzt8mCQ4vPms0LSnqUlmtc3f/KPQsT+UbwOgQO+4eOYj2e1ogSqMAjiL/EgcAxPk65Z9T3lfJFHy79ZJR8bZ70WaYEDADSfhBG4XT98RZ06Pkb93uiufT0Qhvh86EOuPqQBLG6zeRTOW+Ds0TuJRwCdywVydM8jcOrrOumS0qisryvjeA+xfeNzKOVYIJVtDJjtXB9EFj6O+XhWv3MLBAkn8SJw/oDAARB/JITAWfL20EMPUY/n/qAtEwhbfLxGzATWMjmN6hQ4KVDKtKsxUqes72MEjr9AW6akZGm26xgNZIl0ypks434vtYx7f8XvYyFwLQofx3w8qxXFAkHCSaII3MsvvyyFTWX27NkQOABiRNwLnCpvERE4U5Q8I1WGcMnfNULkPeVqjtZZZXwJnONcO9e0qkYUJVLQzPfzUcbzOawy+ilh0DLwcczHs1pRAlUYBPGXRBC4lStXSlHT0aNHD+06AICWJa4Fzi1vkRE4cxTNEixVgtzSZI546XCMrmkEzpYs3TJV1FTU9/dRxiFwliyK/XG+H2gp+Djm49l9PDAIEk4SQeAAAPFH3AqcTt4iJXDqKJr3iJZb4AKMcMVU4CyMUUX+T8M5cC0LH8d8PKsVxQJBwgkEDgAQDnErcD27/8FL3iIncNbv/ZzToW6Bc/+uIxyB87VddVvaMrpte3CMLIIWgY9jPp7VihKowiCIv0DgAADhELcCVzhvBI384G0vVhZkassHwmvkSgqS+KCq8GikidfzErQ3ld+9RsqCEDiB93b15+apZayrVu3tiPdWR9zkNiFwLQofx3w8qxXFAkHCCQQOABAOcX8RQ6TwEjhTkBxTjn5GvdQvxjlNqbwu5clb1vTLTOHyuV3G+d68vuNzWBJq4RBC0BLwcczHs/2dKyBIOIHAAQDCITc3V15E1K5dO3rggQeC6o8SUuAAiAR8HEPgkEimqqpKStyuXbvo0KFDjgY6Vvxly1Ya2X8JjXitgNZ9v15bBgAQe/AwewCChI9jCBzSEon2w+x17K3cSxM+zKeUJ4tp8qd5NG1MPqX9awl9OSyPtm3brl0HABA7IHAABAkfxxA4pCUSS4E7ceIkTR9niBs/C5VH3Q4cOCBZ/8NGyv4kj1Kf+IYmjVhMhw8f1m4DABB9IHAABAkfxxA4JJKJ5RTqtWvXaNHMIkr712L69O08Klu22hY3N+Vr1lFmiiF5s7IL6Pz589pthoLjofWSDCrXlPOP+YD6bjPoiPZ1lcAPnXc/yN546L2+bOQppwzxns6H5zcH4/NGbnuRInoP/+f/T+t95P9tVP8/WxacAwdACPBxDIFDIplYXsTAUsYja+93L/Arbxb8sPuPXs2X63B53TaDQy9dltC1nHD4Ewdzn1wdfPmMYMQwAOUZQQkmC0akPrsqxxA4632M942/7yM82sxVqABEAj6O+XhWK0qgCoMg/hJLgWMJmzlxiTzfjUfWPu2TTwWLv6G9e/c5xK2k4Fs5+sbiNvGjxTQ9K79ZAidHQnwIjSEe4YzEBYMfcTgyg7oldaMZR1zLI0EwAsfvH9QoYhDw+8nvMF6FJVYCJ4jk9xxjIHAAhAAfx3w8qxUlUIVBEH+JtcDNnlJA586do8rKSpqZXUDD/lBCH/bIp4Uziyh3XgmN6G1cyMAXNOzYUSHL8jrhC1ygaUL1dV1Zt5ToZcA9PWuUd5c1fjdkJ7jpS/d2ne9rbb/c3G43IQueshIfU3i8Xb9Cw1IW8vSf+7vyjb/PpZ16tCVRKWOvrwq493cy44j7/8HA/3crkJLteV33fTj2Q7zuJXByf1pI1KMMBA6AEODjmI9ntaIEqjAI4i/xInAWR0TnmjunhP70XBFlPF1M874qop9+Ougo0yyBk52w/xE2T6cbnsAZIqC8h3jPGRqBk529MhpjCYSXOJgYcqDuu7F/nvLG9g1J8awXeATO/Zk0tKDABfxcLlmz1nF8j8q+ye/R/ry678T5/2Bvw+93y9vNULbhfWzIbajfs9xv5zascoG+k0QAAgdACPBxzMezWlECVRgE8Zd4EziLxfNKJLrXmiVwGhlw4xGCcASO1/E1wuIp6yV5Fsooj6Pjl8s123V8HlNW3KLFZQIKXIBRId5GSwhcUJ/L/f+gfMdaIVf/D3Tfief/Qf4e1D54w8dJoG04ypjw/717WSICgQMgBPg45uNZrSiBKgyC+AsEzhtPpxuGwPndvllWyFKgfTC2I+q2JR6+tusQB9e+WPC6fgWOP6dm29Y+6AhK5tzflYagPpcq1eJ39fP42UfjfXXfSZD/Zxopk/uhvEegbUDgnAlb4KqunQYgoeHjmI9ntaIEqjAI4i9tTuC0Uqaivt4yApckBI5H2Xzvg4kqEEFJhk5WBLxuvI7ABfW5BMpncEiRr/VtdN+Ja1lQ+2AcC+p3EMx+QOCcCVvgAGgN8PGsVpRAFQZB/KXtCZw5iuJDaJxTmzoBcUudSwY0ozYelLKyww8gTep7+dquIjZ6WXGX0cHrBdgX3kZLCFxQn4vh74LL8b+KKPn9vhndd+JaFsw+8M8uQXPImXYb+v8PXs/vd5IgQOAACBE+ntWKEqjCIIi/xFrg+JYgx48f95I0XwJ36tSpZt9GxB5NcUmNIW/OTtgte/J3sa5PgbPLOCVDdxGD4/1YAFyC5JRJ730JKJMWGvlwE3BUqKUEThD4cxnIfeTpZ9d+eK8v3jfD+l33nXgvC7gPbkGT36m6DWOb6jaM/z/de2tkMQFpcwKHhzSD5sLHs1pRAlUYBPGXWAocX13K94Cb+FEeFeUvk4/JskTNLXAsectKVlC2WX7P7j3abYaCIVpu3J2rKXsmGeVGRx1ImpzbtrbpQxzkdp3vI3EIhW67bsnR74stF7yOLwljQdG8X/Nwf1e+8f+5TKRE6V5TPp/X+rrvRP89BdoHS8gk4nvk8rrtWmX4Na8yLfI9x4Y2I3B4SDOIFHw8qxUlUIVBEH9hacrIyKDhw4dTTk6O9phrSaqrq+mHtRso54s8ynovT0rbbiFnlsDxjXwLF38jX5syKk8+veHq1avabUUCtZMORjxaEywbbe0zR5vW9B0fPXqU0tPT6f7776e77747qP4ooQQOD2kGkQYCh7REYvkwewv+Y3bO1ALZVvIoW/YIQ+qmj19CmzZuprq6Ou16IFLopy5BZJAjfCFPQ8c3UXuYfTSJ1UOaHUO8Ju5h4pYmng7SoPbFHJaP5XcWChA4pCUSDwJnwVOri+eX0NdzSiIyVQoAaBlapcDF6iHNUuDU+XWf5wy0HIkkcIbwas55ieO/kiBwSEskngQOABD/tNopVJawWDyk2UvgfJys2ZIkjMAFcWVWPAKBQyKZWJ8DBwBITFrtRQwsYdb9jaL3kGbfAucegXNOtTpHoCzpcZTRSZB5GbWFJYnBrG+Vkf+aZYx9VK/E8n81mPsKLfc2eXvWMkcZud0QxNb1OX19loDfV4SAwCGRTCyvQgUAJC5tQuAsWvwhzQK3wLl/1y5zjURZAmTLjW4aVq6jClY5zVAFLsD6Vhl7mbm9bt1c+6GKkCjj2Ya3gHlt01pmbsMQLGv7LINuQfTGWEctZ14mruxXMJ83kvDxzO/nBkHCCQQOABAObUrgLNz3N1KJiMApXyLjFAmduDhH6aSQaEa3PLKkH9Wz8LW+l/Q4RqmM0TVVyNxi6UZ+Vvc2fb2vWzilZAUSOGOfvD6na11f7+v4LBGEj2f3/zGDIOEEAgcACAcInItIj8B5jRiZo0PqF21hCYe3XLmWBZCfgOtry2ikUL6PU+C8BNXvNs1l8rmDrv0NRuB8lnGKXTCfN5Lw8ez4DkwQJJxA4AAA4QCBcxF5gROoI1lBiEtAIYmJwJkiqnw27Qic7n2lwLlHxDQjfm4gcEgbSDwKHJ5YA0D8A4Fz0eIC52taUCGwkPjfRjBC410mgMBpZCpogeNlcn3n9o3RPOcInxMfn9MhlsF93kjCx7NaUQJVGATxl3gSODyxBoDEoVULXCwe0uwtcIaEqDKhE5fyjNCExNiGKlSuixgCrO9dJtAInEumTCHzv03XMimy6nuYo3peEifey1zH+7sy1lFH7oL5vN7LXJ8nwPl+Knw8qxXFAkHCSTwIHJ5YA0Di0WoFLlYPaTaEw9mx66YJpUz4KBOskLjfy5KRYNb3LhNI4ASmgEmEpJbz+/vdpvcya5/Vz+v9nWlG+pTX3d9nMO/rvQwCh8RHYilwsXpiDSPro1qHXPU1fvD+o9EXifOZQGug1QocE28PaQatAz6e1YoSqMIgiL/EUuBi88Qac+Td/QfWDNepJ7GC/5hzzKIEI3At+Jm89gcAg1YtcCp4SDOIFHw8qxUlUIVBEH+JpcCxhEX9iTVyZN/3RVgxJxyBa8nPBIEDPtiwYQP16dOHHnroIbr33nuD6o8SUuAs8JBm0FwgcEhLJBbPQmUJsy72it4Ta1ynL3hhCVO5Maol65cpR9a5txLvUx4CnW4RqIx+CtQjcOrrzm0H+kwG/vfP/bn5xuqeshJMyQIXrfJh9gC0FBA4pCUSa4GziNoTa0Sd0QmWPR2pjGjJ8nw7InskyntUzJArVeoMqQq1jK8RON5f5zmz+nN19Z8pmPf2/twSjMABP0DgAAgBCBzSEokXgbNwX+yl0lyBkyijaU7p8ZYzq6w6wmVInSk2vqYwpWiZ0hRMGet3ncA5Rr80+8j4+kxBvbfufcwyEDjgAwgcACEAgUMimaqqKnke3K5du+jQoUPaY66liKnAWUiJEXXIFhedHPFolZ+RKYcIKajiFEwZ/t1LmHT740PgLNyfKaj39rFNr/0BwCA3N5d69OhB7dq1owceeMA45gL0RyH3VN27d5eXq+t2AIBEAwKHRDKxvogh5gLHBBSZBBM4JuT3hsCB0IjKVah9+/alo0ePancAgESCb03TtWtXR0UJVGEQxF8gcIxxPpgxRRqGwLklLNwyut/DFTj1MwX13hA4EBpREbiMjAyqqKjQ7gAAiQQ/rePf/u3fHBUlUIVBEH+JtcBF/Yk1LDOu87yMCwCsEaowBE4gLxJwiI4qhcGXkdt1jJYFIXABP1Mw7+1H4HSjd6DNExWBmz17Nn399dfaHQAgkSgvL6d/+Zd/cVSUQBUGQfwllgIXmyfWGOLiqD8OsQlP4BjjSk8PDjELuozx/vJ1KWVBCFzAz2Tg/719CJzX/qivgbZMVASOG6jhw4drdwCARIIrjLuiBKowCOIvsRQ4Bk+sASAxiYrAcQYMGEAHDx7U7gQAiQA/+/GZZ56hu+66y1FRAlUYBPGXWAucCp5YA0DiEDWB27RpE3388cfanQAgEZg6dap8ZIlaSVQQJJzEk8BZ4Ik1AMQ/URM4Dt9wjp/dpdsRAOIZfswQX7zga/SNQZBwEo8CBwCIf6IqcA0NDZhKBQkHX3XH9zK8++67HRVE5b777jOPcgQJLRA4AEA4RFXgOHw1U2pqKkbiQELAf2zwna7vvfdeR+VwgyDhBgIHAAiHqAschx8dw9Opo0aNkieG63YMgFjCV9nxOW9PP/003XPPPY6K4YZfR5Bww1d5Wo3wq6++ihkKAEDQtPizUH1l3bp11Lt3b3lxw4oVK9BwgZjCTwvh+7zxHxbPPvusvGDB3zlvFgjSnFy5csUWOGbevHna4xMAANz86U9/CqlfimiPxefF8RWqLHLdunVzNGQARBM+/vgmvX/9139Nf/VXf6WtFG6ef/5580hGkPCjHoc8LaJrqAEAwM1LL72k7Zt8pcWGHF555RXtjgAQjyQnJ5tHLoI0L/y8aEvgevXqpW2oAQDA4qOPPqKRI0fS//t//0874OArLSZwVgKdcwRArEGQSIYfN6iOwuEiLwCAL6ybylvtRbt27YLuo6LSe/HUlHuHAIg1GHVDWiLqlahM//79tQ03AADwyJvaXvzt3/6tV1/lKzEZfuCOE4BYgCDRCN8jkxtjvufg119/LZ9Rqmu8AQBtl4qKCsfoW8eOHbX3KPWVmAgcgiBIaw7fTiQ7O5suX76sbbgBAG0bvlMCnyNryRvzd3/3d17yBoFDEASJUW7fvm032KWlpV4NOQCgbcEjbzw6r8qb7tw35sEHHzRbEu9A4BAEQVo4N27ckDf25YY6JSVFNuC6hh0A0HrhRzm6z3lj2rdv7/N2V/4CgUMQBGnh8B3W3Y02Cx0/IYRv9stCZ6E2+HyFmvqaP7hzUNfVldFRWVnpWI+3oyung59yYq3H5/npyujg0Uj1PfnG77pyOtT18P14o66H78cbdb1ofD/8YANrHd5PdzvA5735erzjf//v/91sQfSBwCEIgrRwpk2b5tVw+0LtJLjx15XR4X7qg66MDhZJdT3ejq6cDu6grPW4g9OV0eG+wfHw4cO15XSo6+H78UZdD9+PN+p60fh+eMTdWufWrVvyyUDWa//8z/+svWjBIlAgcAiCIFHI9u3bHTf59QWP1lkMHDhQW0ZHnz59HOvqyujgDkVdj7ejK6cjPT3dXo8fA6Qro4Nv9K6+Z48ePbTldKjr4fvxRl0P34836nrR+H66dOlCnTp1ovvuu09KGQsbT5m6H1jvJphA4BAEQaIYftwgX6HqvgLNQm3EuZHXldHBz/tV19WV0cGdiboeb0dXTsf9999vr8c3bdeV0fH73//e8Z58AreunA51PXw/3qjr4fvxRl0vGt8Po64XDMEGAocgCBLDHD58mP7+7/9edmZqh8bwX+vW8kC4n3qjK6Pjv/23/+ZYj7ejK6dDPfH6rrvu0pbR8Zvf/MbxnnwOkK6cDnU9fD/eqOvh+/FGXS8a3w+jrucPHqULJRA4BEGQOAnfMkDXsAMAWi+BLlbwFQgcgiAIgiBIggUChyAIgiAIkmCBwCEIgiAIgiRYIHAIgiAIgiAJFggcgiAIgiBIggUChyAIgiAIkmCBwCEIgiAIgiRUiP4/ov3CZpQpRz4AAAAASUVORK5CYII=;" vertex="1" parent="1">
          <mxGeometry x="371.04" y="291.75" width="418.93" height="262.5" as="geometry" />
        </mxCell>
      </root>
    </mxGraphModel>
  </diagram>
  <diagram id="5NboB9744E0_jNUNajeM" name="1">
    <mxGraphModel dx="1290" dy="725" grid="1" gridSize="10" guides="1" tooltips="1" connect="1" arrows="1" fold="1" page="1" pageScale="1" pageWidth="827" pageHeight="1169" math="0" shadow="0">
      <root>
        <mxCell id="0" />
        <mxCell id="1" parent="0" />
        <mxCell id="8-oNCAQ-rwSviOGRKuBR-1" value="1" style="ellipse;shape=doubleEllipse;whiteSpace=wrap;html=1;aspect=fixed;strokeColor=#9999FF;" parent="1" vertex="1">
          <mxGeometry x="99.50000000000004" y="50" width="66" height="66" as="geometry" />
        </mxCell>
        <mxCell id="8-oNCAQ-rwSviOGRKuBR-2" value="Class&amp;nbsp;&lt;div&gt;SortingAlgorithms&lt;/div&gt;" style="shape=callout;whiteSpace=wrap;html=1;perimeter=calloutPerimeter;position2=0;base=20;size=30;position=0.14;" parent="1" vertex="1">
          <mxGeometry x="162" y="20" width="163.04" height="60" as="geometry" />
        </mxCell>
        <mxCell id="v4n8lkLGaFezKklnAVVf-2" value="" style="edgeStyle=orthogonalEdgeStyle;rounded=0;orthogonalLoop=1;jettySize=auto;html=1;" edge="1" parent="1" source="8-oNCAQ-rwSviOGRKuBR-4" target="v4n8lkLGaFezKklnAVVf-1">
          <mxGeometry relative="1" as="geometry" />
        </mxCell>
        <mxCell id="8-oNCAQ-rwSviOGRKuBR-4" value="void HeapSort(int[] array)" style="ellipse;whiteSpace=wrap;html=1;" parent="1" vertex="1">
          <mxGeometry x="54" y="170" width="157" height="90" as="geometry" />
        </mxCell>
        <mxCell id="8-oNCAQ-rwSviOGRKuBR-13" value="" style="endArrow=classic;startArrow=classic;html=1;rounded=0;exitX=0.482;exitY=-0.022;exitDx=0;exitDy=0;exitPerimeter=0;" parent="1" source="8-oNCAQ-rwSviOGRKuBR-4" edge="1">
          <mxGeometry width="50" height="50" relative="1" as="geometry">
            <mxPoint x="128.5" y="170" as="sourcePoint" />
            <mxPoint x="130" y="120" as="targetPoint" />
          </mxGeometry>
        </mxCell>
        <mxCell id="8-oNCAQ-rwSviOGRKuBR-33" value="QuickSort(int[] array)" style="ellipse;whiteSpace=wrap;html=1;" parent="1" vertex="1">
          <mxGeometry x="355" y="884" width="157" height="90" as="geometry" />
        </mxCell>
        <mxCell id="8-oNCAQ-rwSviOGRKuBR-34" value="QuickSort(array, 0, array.Length - 1);" style="shape=parallelogram;perimeter=parallelogramPerimeter;whiteSpace=wrap;html=1;fixedSize=1;" parent="1" vertex="1">
          <mxGeometry x="360" y="1034" width="147" height="80" as="geometry" />
        </mxCell>
        <mxCell id="8-oNCAQ-rwSviOGRKuBR-35" value="" style="endArrow=classic;startArrow=classic;html=1;rounded=0;exitX=0.5;exitY=0;exitDx=0;exitDy=0;" parent="1" source="8-oNCAQ-rwSviOGRKuBR-34" edge="1">
          <mxGeometry width="50" height="50" relative="1" as="geometry">
            <mxPoint x="385" y="1024" as="sourcePoint" />
            <mxPoint x="435" y="974" as="targetPoint" />
          </mxGeometry>
        </mxCell>
        <mxCell id="8-oNCAQ-rwSviOGRKuBR-36" value="Recursion" style="text;whiteSpace=wrap;fillColor=#FF0D05;" parent="1" vertex="1">
          <mxGeometry x="445" y="992" width="62" height="28" as="geometry" />
        </mxCell>
        <mxCell id="8-oNCAQ-rwSviOGRKuBR-38" value="№1" style="text;html=1;align=center;verticalAlign=middle;resizable=0;points=[];autosize=1;strokeColor=none;fillColor=none;" parent="1" vertex="1">
          <mxGeometry x="485" y="872" width="40" height="30" as="geometry" />
        </mxCell>
        <mxCell id="8-oNCAQ-rwSviOGRKuBR-44" value="" style="edgeStyle=orthogonalEdgeStyle;rounded=0;orthogonalLoop=1;jettySize=auto;html=1;" parent="1" source="8-oNCAQ-rwSviOGRKuBR-41" target="8-oNCAQ-rwSviOGRKuBR-43" edge="1">
          <mxGeometry relative="1" as="geometry" />
        </mxCell>
        <mxCell id="8-oNCAQ-rwSviOGRKuBR-41" value="QuickSort(int[] array, int low, int high)" style="ellipse;whiteSpace=wrap;html=1;" parent="1" vertex="1">
          <mxGeometry x="622.13" y="492" width="157" height="90" as="geometry" />
        </mxCell>
        <mxCell id="8-oNCAQ-rwSviOGRKuBR-42" value="№2" style="text;html=1;align=center;verticalAlign=middle;resizable=0;points=[];autosize=1;strokeColor=none;fillColor=none;" parent="1" vertex="1">
          <mxGeometry x="740.63" y="480" width="40" height="30" as="geometry" />
        </mxCell>
        <mxCell id="8-oNCAQ-rwSviOGRKuBR-47" style="edgeStyle=orthogonalEdgeStyle;rounded=0;orthogonalLoop=1;jettySize=auto;html=1;entryX=1;entryY=0.5;entryDx=0;entryDy=0;" parent="1" source="8-oNCAQ-rwSviOGRKuBR-43" target="8-oNCAQ-rwSviOGRKuBR-45" edge="1">
          <mxGeometry relative="1" as="geometry">
            <Array as="points">
              <mxPoint x="783.63" y="655" />
              <mxPoint x="783.63" y="757" />
            </Array>
          </mxGeometry>
        </mxCell>
        <mxCell id="8-oNCAQ-rwSviOGRKuBR-43" value="if (low &amp;lt; high)" style="rhombus;whiteSpace=wrap;html=1;" parent="1" vertex="1">
          <mxGeometry x="647.63" y="610" width="106" height="90" as="geometry" />
        </mxCell>
        <mxCell id="8-oNCAQ-rwSviOGRKuBR-48" value="" style="edgeStyle=orthogonalEdgeStyle;rounded=0;orthogonalLoop=1;jettySize=auto;html=1;" parent="1" source="8-oNCAQ-rwSviOGRKuBR-45" target="8-oNCAQ-rwSviOGRKuBR-46" edge="1">
          <mxGeometry relative="1" as="geometry" />
        </mxCell>
        <mxCell id="8-oNCAQ-rwSviOGRKuBR-45" value="int pi = Partition(array, low, high);" style="rounded=0;whiteSpace=wrap;html=1;" parent="1" vertex="1">
          <mxGeometry x="634.63" y="722" width="126" height="70" as="geometry" />
        </mxCell>
        <mxCell id="8-oNCAQ-rwSviOGRKuBR-46" value="&lt;div&gt;QuickSort(array, low, pi - 1);&lt;/div&gt;&lt;div&gt;QuickSort(array, pi + 1, high);&lt;/div&gt;" style="shape=parallelogram;perimeter=parallelogramPerimeter;whiteSpace=wrap;html=1;fixedSize=1;" parent="1" vertex="1">
          <mxGeometry x="603.13" y="830" width="189" height="90" as="geometry" />
        </mxCell>
        <mxCell id="viKQmZKqDgBj0mPYjRE1-5" value="Yes" style="text;html=1;align=center;verticalAlign=middle;resizable=0;points=[];autosize=1;strokeColor=none;fillColor=#70FF45;" parent="1" vertex="1">
          <mxGeometry x="739.13" y="620" width="40" height="30" as="geometry" />
        </mxCell>
        <mxCell id="WHrIR2Ry2zltWRfsNIv8-1" value="Recursion" style="text;whiteSpace=wrap;fillColor=#FF0D05;" parent="1" vertex="1">
          <mxGeometry x="760.63" y="810" width="62" height="28" as="geometry" />
        </mxCell>
        <mxCell id="v4n8lkLGaFezKklnAVVf-8" value="" style="edgeStyle=orthogonalEdgeStyle;rounded=0;orthogonalLoop=1;jettySize=auto;html=1;" edge="1" parent="1" source="v4n8lkLGaFezKklnAVVf-1" target="v4n8lkLGaFezKklnAVVf-4">
          <mxGeometry relative="1" as="geometry" />
        </mxCell>
        <mxCell id="v4n8lkLGaFezKklnAVVf-1" value="int n = array.Length;" style="rounded=0;whiteSpace=wrap;html=1;" vertex="1" parent="1">
          <mxGeometry x="72.5" y="290" width="120" height="60" as="geometry" />
        </mxCell>
        <mxCell id="v4n8lkLGaFezKklnAVVf-6" value="" style="edgeStyle=orthogonalEdgeStyle;rounded=0;orthogonalLoop=1;jettySize=auto;html=1;" edge="1" parent="1" source="v4n8lkLGaFezKklnAVVf-4" target="v4n8lkLGaFezKklnAVVf-5">
          <mxGeometry relative="1" as="geometry" />
        </mxCell>
        <mxCell id="v4n8lkLGaFezKklnAVVf-12" style="edgeStyle=orthogonalEdgeStyle;rounded=0;orthogonalLoop=1;jettySize=auto;html=1;entryX=0.5;entryY=0;entryDx=0;entryDy=0;" edge="1" parent="1" source="v4n8lkLGaFezKklnAVVf-4" target="v4n8lkLGaFezKklnAVVf-10">
          <mxGeometry relative="1" as="geometry">
            <Array as="points">
              <mxPoint x="250" y="435" />
              <mxPoint x="250" y="620" />
              <mxPoint x="125" y="620" />
            </Array>
          </mxGeometry>
        </mxCell>
        <mxCell id="v4n8lkLGaFezKklnAVVf-4" value="int i = n / 2 - 1; i &amp;gt;= 0; i--" style="shape=hexagon;perimeter=hexagonPerimeter2;whiteSpace=wrap;html=1;fixedSize=1;" vertex="1" parent="1">
          <mxGeometry x="46.75" y="380" width="171.5" height="110" as="geometry" />
        </mxCell>
        <mxCell id="v4n8lkLGaFezKklnAVVf-7" style="edgeStyle=orthogonalEdgeStyle;rounded=0;orthogonalLoop=1;jettySize=auto;html=1;entryX=0;entryY=0.5;entryDx=0;entryDy=0;" edge="1" parent="1" source="v4n8lkLGaFezKklnAVVf-5" target="v4n8lkLGaFezKklnAVVf-4">
          <mxGeometry relative="1" as="geometry">
            <Array as="points">
              <mxPoint x="27" y="570" />
              <mxPoint x="27" y="435" />
            </Array>
          </mxGeometry>
        </mxCell>
        <mxCell id="v4n8lkLGaFezKklnAVVf-5" value="Heapify(array, n, i);" style="rounded=0;whiteSpace=wrap;html=1;" vertex="1" parent="1">
          <mxGeometry x="72.5" y="540" width="120" height="60" as="geometry" />
        </mxCell>
        <mxCell id="v4n8lkLGaFezKklnAVVf-19" value="" style="edgeStyle=orthogonalEdgeStyle;rounded=0;orthogonalLoop=1;jettySize=auto;html=1;" edge="1" parent="1" source="v4n8lkLGaFezKklnAVVf-10" target="v4n8lkLGaFezKklnAVVf-13">
          <mxGeometry relative="1" as="geometry" />
        </mxCell>
        <mxCell id="v4n8lkLGaFezKklnAVVf-10" value="int i = n / 2 - 1; i &amp;gt;= 0; i--" style="shape=hexagon;perimeter=hexagonPerimeter2;whiteSpace=wrap;html=1;fixedSize=1;" vertex="1" parent="1">
          <mxGeometry x="39.5" y="650" width="171.5" height="110" as="geometry" />
        </mxCell>
        <mxCell id="v4n8lkLGaFezKklnAVVf-26" style="edgeStyle=orthogonalEdgeStyle;rounded=0;orthogonalLoop=1;jettySize=auto;html=1;" edge="1" parent="1" source="v4n8lkLGaFezKklnAVVf-13" target="v4n8lkLGaFezKklnAVVf-15">
          <mxGeometry relative="1" as="geometry" />
        </mxCell>
        <mxCell id="v4n8lkLGaFezKklnAVVf-13" value="int temp = array[0];" style="rounded=0;whiteSpace=wrap;html=1;" vertex="1" parent="1">
          <mxGeometry x="65.25" y="788" width="120" height="60" as="geometry" />
        </mxCell>
        <mxCell id="v4n8lkLGaFezKklnAVVf-24" style="edgeStyle=orthogonalEdgeStyle;rounded=0;orthogonalLoop=1;jettySize=auto;html=1;entryX=0.5;entryY=0;entryDx=0;entryDy=0;" edge="1" parent="1" source="v4n8lkLGaFezKklnAVVf-15" target="v4n8lkLGaFezKklnAVVf-16">
          <mxGeometry relative="1" as="geometry" />
        </mxCell>
        <mxCell id="v4n8lkLGaFezKklnAVVf-15" value="array[0] = array[i];" style="rounded=0;whiteSpace=wrap;html=1;" vertex="1" parent="1">
          <mxGeometry x="65.25" y="872" width="120" height="60" as="geometry" />
        </mxCell>
        <mxCell id="v4n8lkLGaFezKklnAVVf-25" style="edgeStyle=orthogonalEdgeStyle;rounded=0;orthogonalLoop=1;jettySize=auto;html=1;" edge="1" parent="1" source="v4n8lkLGaFezKklnAVVf-16" target="v4n8lkLGaFezKklnAVVf-17">
          <mxGeometry relative="1" as="geometry" />
        </mxCell>
        <mxCell id="v4n8lkLGaFezKklnAVVf-16" value="array[i] = temp;" style="rounded=0;whiteSpace=wrap;html=1;" vertex="1" parent="1">
          <mxGeometry x="65.25" y="970" width="120" height="60" as="geometry" />
        </mxCell>
        <mxCell id="v4n8lkLGaFezKklnAVVf-27" style="edgeStyle=orthogonalEdgeStyle;rounded=0;orthogonalLoop=1;jettySize=auto;html=1;entryX=0;entryY=0.5;entryDx=0;entryDy=0;" edge="1" parent="1" source="v4n8lkLGaFezKklnAVVf-17" target="v4n8lkLGaFezKklnAVVf-10">
          <mxGeometry relative="1" as="geometry">
            <Array as="points">
              <mxPoint x="125" y="1140" />
              <mxPoint x="20" y="1140" />
              <mxPoint x="20" y="705" />
            </Array>
          </mxGeometry>
        </mxCell>
        <mxCell id="v4n8lkLGaFezKklnAVVf-17" value="Heapify(array, i, 0);" style="rounded=0;whiteSpace=wrap;html=1;" vertex="1" parent="1">
          <mxGeometry x="65.25" y="1058" width="120" height="60" as="geometry" />
        </mxCell>
        <mxCell id="v4n8lkLGaFezKklnAVVf-30" value="" style="edgeStyle=orthogonalEdgeStyle;rounded=0;orthogonalLoop=1;jettySize=auto;html=1;" edge="1" parent="1" source="v4n8lkLGaFezKklnAVVf-28" target="v4n8lkLGaFezKklnAVVf-29">
          <mxGeometry relative="1" as="geometry" />
        </mxCell>
        <mxCell id="v4n8lkLGaFezKklnAVVf-28" value="void Heapify(int[] array, int n, int i)" style="ellipse;whiteSpace=wrap;html=1;" vertex="1" parent="1">
          <mxGeometry x="350" y="10" width="120" height="80" as="geometry" />
        </mxCell>
        <mxCell id="v4n8lkLGaFezKklnAVVf-33" value="" style="edgeStyle=orthogonalEdgeStyle;rounded=0;orthogonalLoop=1;jettySize=auto;html=1;" edge="1" parent="1" source="v4n8lkLGaFezKklnAVVf-29" target="v4n8lkLGaFezKklnAVVf-31">
          <mxGeometry relative="1" as="geometry" />
        </mxCell>
        <mxCell id="v4n8lkLGaFezKklnAVVf-29" value="int largest = i;&amp;nbsp;" style="rounded=0;whiteSpace=wrap;html=1;" vertex="1" parent="1">
          <mxGeometry x="350" y="127" width="120" height="60" as="geometry" />
        </mxCell>
        <mxCell id="v4n8lkLGaFezKklnAVVf-34" value="" style="edgeStyle=orthogonalEdgeStyle;rounded=0;orthogonalLoop=1;jettySize=auto;html=1;" edge="1" parent="1" source="v4n8lkLGaFezKklnAVVf-31" target="v4n8lkLGaFezKklnAVVf-32">
          <mxGeometry relative="1" as="geometry" />
        </mxCell>
        <mxCell id="v4n8lkLGaFezKklnAVVf-31" value="int left = 2 * i + 1;&amp;nbsp;" style="rounded=0;whiteSpace=wrap;html=1;" vertex="1" parent="1">
          <mxGeometry x="350" y="217" width="120" height="60" as="geometry" />
        </mxCell>
        <mxCell id="v4n8lkLGaFezKklnAVVf-44" style="edgeStyle=orthogonalEdgeStyle;rounded=0;orthogonalLoop=1;jettySize=auto;html=1;entryX=0;entryY=0.5;entryDx=0;entryDy=0;" edge="1" parent="1" source="v4n8lkLGaFezKklnAVVf-32" target="v4n8lkLGaFezKklnAVVf-40">
          <mxGeometry relative="1" as="geometry" />
        </mxCell>
        <mxCell id="v4n8lkLGaFezKklnAVVf-32" value="int right = 2 * i + 2;&amp;nbsp;" style="rounded=0;whiteSpace=wrap;html=1;" vertex="1" parent="1">
          <mxGeometry x="350" y="307" width="120" height="60" as="geometry" />
        </mxCell>
        <mxCell id="v4n8lkLGaFezKklnAVVf-51" value="" style="edgeStyle=orthogonalEdgeStyle;rounded=0;orthogonalLoop=1;jettySize=auto;html=1;" edge="1" parent="1" source="v4n8lkLGaFezKklnAVVf-40" target="v4n8lkLGaFezKklnAVVf-50">
          <mxGeometry relative="1" as="geometry" />
        </mxCell>
        <mxCell id="v4n8lkLGaFezKklnAVVf-40" value="left &amp;lt; n &amp;amp;&amp;amp; array[left] &amp;gt; array[largest]" style="rhombus;whiteSpace=wrap;html=1;" vertex="1" parent="1">
          <mxGeometry x="530.63" y="40" width="112.5" height="100" as="geometry" />
        </mxCell>
        <mxCell id="v4n8lkLGaFezKklnAVVf-54" value="" style="edgeStyle=orthogonalEdgeStyle;rounded=0;orthogonalLoop=1;jettySize=auto;html=1;" edge="1" parent="1" source="v4n8lkLGaFezKklnAVVf-42" target="v4n8lkLGaFezKklnAVVf-53">
          <mxGeometry relative="1" as="geometry" />
        </mxCell>
        <mxCell id="v4n8lkLGaFezKklnAVVf-42" value="right &amp;lt; n &amp;amp;&amp;amp; array[right] &amp;gt; array[largest]" style="rhombus;whiteSpace=wrap;html=1;" vertex="1" parent="1">
          <mxGeometry x="536.88" y="170" width="106.25" height="100" as="geometry" />
        </mxCell>
        <mxCell id="v4n8lkLGaFezKklnAVVf-46" value="" style="endArrow=classic;html=1;rounded=0;entryX=0.057;entryY=0.6;entryDx=0;entryDy=0;entryPerimeter=0;" edge="1" parent="1">
          <mxGeometry width="50" height="50" relative="1" as="geometry">
            <mxPoint x="500" y="220" as="sourcePoint" />
            <mxPoint x="540.02" y="220" as="targetPoint" />
          </mxGeometry>
        </mxCell>
        <mxCell id="v4n8lkLGaFezKklnAVVf-48" value="" style="endArrow=classic;html=1;rounded=0;" edge="1" parent="1">
          <mxGeometry width="50" height="50" relative="1" as="geometry">
            <mxPoint x="499.01" y="336.5" as="sourcePoint" />
            <mxPoint x="549.01" y="336.5" as="targetPoint" />
          </mxGeometry>
        </mxCell>
        <mxCell id="v4n8lkLGaFezKklnAVVf-56" value="" style="edgeStyle=orthogonalEdgeStyle;rounded=0;orthogonalLoop=1;jettySize=auto;html=1;" edge="1" parent="1" source="v4n8lkLGaFezKklnAVVf-49" target="v4n8lkLGaFezKklnAVVf-55">
          <mxGeometry relative="1" as="geometry" />
        </mxCell>
        <mxCell id="bqhuPVVEe2Rm1qiZ3zpF-52" style="edgeStyle=orthogonalEdgeStyle;rounded=0;orthogonalLoop=1;jettySize=auto;html=1;" edge="1" parent="1" source="v4n8lkLGaFezKklnAVVf-49" target="bqhuPVVEe2Rm1qiZ3zpF-51">
          <mxGeometry relative="1" as="geometry" />
        </mxCell>
        <mxCell id="v4n8lkLGaFezKklnAVVf-49" value="largest != i" style="rhombus;whiteSpace=wrap;html=1;" vertex="1" parent="1">
          <mxGeometry x="549.01" y="287" width="89.99" height="93" as="geometry" />
        </mxCell>
        <mxCell id="v4n8lkLGaFezKklnAVVf-50" value="largest = left;" style="rounded=0;whiteSpace=wrap;html=1;" vertex="1" parent="1">
          <mxGeometry x="678.5" y="65" width="106.5" height="50" as="geometry" />
        </mxCell>
        <mxCell id="v4n8lkLGaFezKklnAVVf-53" value="largest = right;" style="rounded=0;whiteSpace=wrap;html=1;" vertex="1" parent="1">
          <mxGeometry x="678.5" y="195" width="106.5" height="50" as="geometry" />
        </mxCell>
        <mxCell id="v4n8lkLGaFezKklnAVVf-55" value="&lt;div&gt;int swap = array[i];&lt;/div&gt;&lt;div&gt;array[i] = array[largest];&lt;/div&gt;&lt;div&gt;array[largest] = swap;&lt;br&gt;&lt;/div&gt;&lt;div&gt;&lt;br&gt;&lt;/div&gt;" style="rounded=0;whiteSpace=wrap;html=1;" vertex="1" parent="1">
          <mxGeometry x="671.75" y="275.25" width="138.25" height="54.75" as="geometry" />
        </mxCell>
        <mxCell id="1VFXvKjYsJn44ez4uvj_-1" value="Yes" style="text;html=1;align=center;verticalAlign=middle;resizable=0;points=[];autosize=1;strokeColor=none;fillColor=#70FF45;" vertex="1" parent="1">
          <mxGeometry x="178.25" y="750" width="40" height="30" as="geometry" />
        </mxCell>
        <mxCell id="1VFXvKjYsJn44ez4uvj_-2" value="Yes" style="text;html=1;align=center;verticalAlign=middle;resizable=0;points=[];autosize=1;strokeColor=none;fillColor=#70FF45;" vertex="1" parent="1">
          <mxGeometry x="178.25" y="480" width="40" height="30" as="geometry" />
        </mxCell>
        <mxCell id="1VFXvKjYsJn44ez4uvj_-3" value="No" style="text;html=1;align=center;verticalAlign=middle;resizable=0;points=[];autosize=1;strokeColor=none;fillColor=#FF0000;" vertex="1" parent="1">
          <mxGeometry x="200" y="400" width="40" height="30" as="geometry" />
        </mxCell>
        <mxCell id="1VFXvKjYsJn44ez4uvj_-4" value="Yes" style="text;html=1;align=center;verticalAlign=middle;resizable=0;points=[];autosize=1;strokeColor=none;fillColor=#70FF45;" vertex="1" parent="1">
          <mxGeometry x="607.5" y="290" width="40" height="30" as="geometry" />
        </mxCell>
        <mxCell id="1VFXvKjYsJn44ez4uvj_-5" value="Yes" style="text;html=1;align=center;verticalAlign=middle;resizable=0;points=[];autosize=1;strokeColor=none;fillColor=#70FF45;" vertex="1" parent="1">
          <mxGeometry x="607.5" y="170" width="40" height="30" as="geometry" />
        </mxCell>
        <mxCell id="1VFXvKjYsJn44ez4uvj_-6" value="Yes" style="text;html=1;align=center;verticalAlign=middle;resizable=0;points=[];autosize=1;strokeColor=none;fillColor=#70FF45;" vertex="1" parent="1">
          <mxGeometry x="603.13" y="40" width="40" height="30" as="geometry" />
        </mxCell>
        <mxCell id="bqhuPVVEe2Rm1qiZ3zpF-1" value="O(1)" style="text;html=1;align=center;verticalAlign=middle;resizable=0;points=[];autosize=1;strokeColor=#70FF45;fillColor=#70FF45;" vertex="1" parent="1">
          <mxGeometry x="185.25" y="277" width="50" height="30" as="geometry" />
        </mxCell>
        <mxCell id="bqhuPVVEe2Rm1qiZ3zpF-2" value="O(N)" style="text;html=1;align=center;verticalAlign=middle;resizable=0;points=[];autosize=1;strokeColor=#FF9933;fillColor=#FF9933;" vertex="1" parent="1">
          <mxGeometry x="194.99999999999997" y="450" width="50" height="30" as="geometry" />
        </mxCell>
        <mxCell id="bqhuPVVEe2Rm1qiZ3zpF-3" value="O(N)" style="text;html=1;align=center;verticalAlign=middle;resizable=0;points=[];autosize=1;strokeColor=#FF9933;fillColor=#FF9933;" vertex="1" parent="1">
          <mxGeometry x="185.24999999999997" y="660" width="50" height="30" as="geometry" />
        </mxCell>
        <mxCell id="bqhuPVVEe2Rm1qiZ3zpF-4" value="O(N*log(N))" style="text;html=1;align=center;verticalAlign=middle;resizable=0;points=[];autosize=1;strokeColor=#FF9933;fillColor=#FF6666;" vertex="1" parent="1">
          <mxGeometry x="485" y="1020" width="90" height="30" as="geometry" />
        </mxCell>
        <mxCell id="bqhuPVVEe2Rm1qiZ3zpF-5" value="" style="shape=curlyBracket;whiteSpace=wrap;html=1;rounded=1;labelPosition=left;verticalLabelPosition=middle;align=right;verticalAlign=middle;" vertex="1" parent="1">
          <mxGeometry x="340" y="882" width="20" height="260" as="geometry" />
        </mxCell>
        <mxCell id="bqhuPVVEe2Rm1qiZ3zpF-6" value="O(N*log(N))" style="text;html=1;align=center;verticalAlign=middle;resizable=0;points=[];autosize=1;strokeColor=#FF9933;fillColor=#FF6666;" vertex="1" parent="1">
          <mxGeometry x="245" y="997" width="90" height="30" as="geometry" />
        </mxCell>
        <mxCell id="bqhuPVVEe2Rm1qiZ3zpF-7" value="O(1)" style="text;html=1;align=center;verticalAlign=middle;resizable=0;points=[];autosize=1;strokeColor=#70FF45;fillColor=#70FF45;" vertex="1" parent="1">
          <mxGeometry x="168.25" y="830" width="50" height="30" as="geometry" />
        </mxCell>
        <mxCell id="bqhuPVVEe2Rm1qiZ3zpF-8" value="O(1)" style="text;html=1;align=center;verticalAlign=middle;resizable=0;points=[];autosize=1;strokeColor=#70FF45;fillColor=#70FF45;" vertex="1" parent="1">
          <mxGeometry x="168.25" y="920" width="50" height="30" as="geometry" />
        </mxCell>
        <mxCell id="bqhuPVVEe2Rm1qiZ3zpF-9" value="O(1)" style="text;html=1;align=center;verticalAlign=middle;resizable=0;points=[];autosize=1;strokeColor=#70FF45;fillColor=#70FF45;" vertex="1" parent="1">
          <mxGeometry x="168.25" y="1010" width="50" height="30" as="geometry" />
        </mxCell>
        <mxCell id="bqhuPVVEe2Rm1qiZ3zpF-10" value="O(1)" style="text;html=1;align=center;verticalAlign=middle;resizable=0;points=[];autosize=1;strokeColor=#70FF45;fillColor=#70FF45;" vertex="1" parent="1">
          <mxGeometry x="168.25" y="1100" width="50" height="30" as="geometry" />
        </mxCell>
        <mxCell id="bqhuPVVEe2Rm1qiZ3zpF-38" value="" style="shape=curlyBracket;whiteSpace=wrap;html=1;rounded=1;flipH=1;labelPosition=right;verticalLabelPosition=middle;align=left;verticalAlign=middle;" vertex="1" parent="1">
          <mxGeometry x="250" y="360" width="20" height="810" as="geometry" />
        </mxCell>
        <mxCell id="bqhuPVVEe2Rm1qiZ3zpF-39" value="O(N*log(N))" style="text;html=1;align=center;verticalAlign=middle;resizable=0;points=[];autosize=1;strokeColor=#FF9933;fillColor=#FF6666;" vertex="1" parent="1">
          <mxGeometry x="290" y="750" width="90" height="30" as="geometry" />
        </mxCell>
        <mxCell id="bqhuPVVEe2Rm1qiZ3zpF-40" value="O(N*log(N))" style="text;html=1;align=center;verticalAlign=middle;resizable=0;points=[];autosize=1;strokeColor=#FF9933;fillColor=#FF6666;" vertex="1" parent="1">
          <mxGeometry x="732.63" y="902" width="90" height="30" as="geometry" />
        </mxCell>
        <mxCell id="bqhuPVVEe2Rm1qiZ3zpF-41" value="O(1)" style="text;html=1;align=center;verticalAlign=middle;resizable=0;points=[];autosize=1;strokeColor=#70FF45;fillColor=#70FF45;" vertex="1" parent="1">
          <mxGeometry x="725.87" y="670" width="50" height="30" as="geometry" />
        </mxCell>
        <mxCell id="bqhuPVVEe2Rm1qiZ3zpF-43" value="" style="shape=curlyBracket;whiteSpace=wrap;html=1;rounded=1;labelPosition=left;verticalLabelPosition=middle;align=right;verticalAlign=middle;" vertex="1" parent="1">
          <mxGeometry x="575" y="500" width="20" height="430" as="geometry" />
        </mxCell>
        <mxCell id="bqhuPVVEe2Rm1qiZ3zpF-44" value="O(N*log(N))" style="text;html=1;align=center;verticalAlign=middle;resizable=0;points=[];autosize=1;strokeColor=#FF9933;fillColor=#FF6666;" vertex="1" parent="1">
          <mxGeometry x="470" y="700" width="90" height="30" as="geometry" />
        </mxCell>
        <mxCell id="bqhuPVVEe2Rm1qiZ3zpF-45" value="O(1)" style="text;html=1;align=center;verticalAlign=middle;resizable=0;points=[];autosize=1;strokeColor=#70FF45;fillColor=#70FF45;" vertex="1" parent="1">
          <mxGeometry x="607.5" y="350" width="50" height="30" as="geometry" />
        </mxCell>
        <mxCell id="bqhuPVVEe2Rm1qiZ3zpF-46" value="O(1)" style="text;html=1;align=center;verticalAlign=middle;resizable=0;points=[];autosize=1;strokeColor=#70FF45;fillColor=#70FF45;" vertex="1" parent="1">
          <mxGeometry x="603.13" y="240" width="50" height="30" as="geometry" />
        </mxCell>
        <mxCell id="bqhuPVVEe2Rm1qiZ3zpF-47" value="O(1)" style="text;html=1;align=center;verticalAlign=middle;resizable=0;points=[];autosize=1;strokeColor=#70FF45;fillColor=#70FF45;" vertex="1" parent="1">
          <mxGeometry x="603.13" y="110" width="50" height="30" as="geometry" />
        </mxCell>
        <mxCell id="bqhuPVVEe2Rm1qiZ3zpF-48" value="O(1)" style="text;html=1;align=center;verticalAlign=middle;resizable=0;points=[];autosize=1;strokeColor=#70FF45;fillColor=#70FF45;" vertex="1" parent="1">
          <mxGeometry x="435" y="350" width="50" height="30" as="geometry" />
        </mxCell>
        <mxCell id="bqhuPVVEe2Rm1qiZ3zpF-49" value="O(1)" style="text;html=1;align=center;verticalAlign=middle;resizable=0;points=[];autosize=1;strokeColor=#70FF45;fillColor=#70FF45;" vertex="1" parent="1">
          <mxGeometry x="435" y="260" width="50" height="30" as="geometry" />
        </mxCell>
        <mxCell id="bqhuPVVEe2Rm1qiZ3zpF-50" value="O(1)" style="text;html=1;align=center;verticalAlign=middle;resizable=0;points=[];autosize=1;strokeColor=#70FF45;fillColor=#70FF45;" vertex="1" parent="1">
          <mxGeometry x="435" y="170" width="50" height="30" as="geometry" />
        </mxCell>
        <mxCell id="bqhuPVVEe2Rm1qiZ3zpF-51" value="Heapify(array, n, largest)" style="rounded=0;whiteSpace=wrap;html=1;" vertex="1" parent="1">
          <mxGeometry x="680.88" y="360" width="120" height="60" as="geometry" />
        </mxCell>
        <mxCell id="bqhuPVVEe2Rm1qiZ3zpF-54" value="O(N*log(N))" style="text;html=1;align=center;verticalAlign=middle;resizable=0;points=[];autosize=1;strokeColor=#FF9933;fillColor=#FF6666;" vertex="1" parent="1">
          <mxGeometry x="732.63" y="410" width="90" height="30" as="geometry" />
        </mxCell>
      </root>
    </mxGraphModel>
  </diagram>
  <diagram id="XiGMAkieQP_4hOglxmrk" name="2">
    <mxGraphModel dx="1290" dy="725" grid="1" gridSize="10" guides="1" tooltips="1" connect="1" arrows="1" fold="1" page="1" pageScale="1" pageWidth="827" pageHeight="1169" math="0" shadow="0">
      <root>
        <mxCell id="0" />
        <mxCell id="1" parent="0" />
        <mxCell id="TrbCekeJE1Sh1kDuo4cs-37" style="edgeStyle=orthogonalEdgeStyle;rounded=0;orthogonalLoop=1;jettySize=auto;html=1;entryX=1;entryY=0.5;entryDx=0;entryDy=0;" parent="1" edge="1">
          <mxGeometry relative="1" as="geometry">
            <Array as="points">
              <mxPoint x="800" y="2670" />
              <mxPoint x="800" y="2535" />
              <mxPoint x="801" y="2390" />
            </Array>
            <mxPoint x="780.5" y="2390" as="targetPoint" />
          </mxGeometry>
        </mxCell>
        <mxCell id="w0IsWjh7T6RKe6QmCwsp-1" value="" style="edgeStyle=orthogonalEdgeStyle;rounded=0;orthogonalLoop=1;jettySize=auto;html=1;" edge="1" parent="1" source="w0IsWjh7T6RKe6QmCwsp-2" target="w0IsWjh7T6RKe6QmCwsp-3">
          <mxGeometry relative="1" as="geometry" />
        </mxCell>
        <mxCell id="w0IsWjh7T6RKe6QmCwsp-2" value="void SmoothSort(int[] array)" style="ellipse;whiteSpace=wrap;html=1;" vertex="1" parent="1">
          <mxGeometry x="80" y="50" width="170" height="100" as="geometry" />
        </mxCell>
        <mxCell id="w0IsWjh7T6RKe6QmCwsp-8" value="" style="edgeStyle=orthogonalEdgeStyle;rounded=0;orthogonalLoop=1;jettySize=auto;html=1;" edge="1" parent="1" source="w0IsWjh7T6RKe6QmCwsp-3" target="w0IsWjh7T6RKe6QmCwsp-4">
          <mxGeometry relative="1" as="geometry" />
        </mxCell>
        <mxCell id="w0IsWjh7T6RKe6QmCwsp-3" value="&lt;div&gt;int n = array.Length;&lt;/div&gt;&lt;div&gt;int p = 1;&lt;/div&gt;&lt;div&gt;int r = 1;&lt;/div&gt;" style="rounded=0;whiteSpace=wrap;html=1;" vertex="1" parent="1">
          <mxGeometry x="105" y="190" width="120" height="60" as="geometry" />
        </mxCell>
        <mxCell id="w0IsWjh7T6RKe6QmCwsp-7" value="" style="edgeStyle=orthogonalEdgeStyle;rounded=0;orthogonalLoop=1;jettySize=auto;html=1;" edge="1" parent="1" source="w0IsWjh7T6RKe6QmCwsp-4" target="w0IsWjh7T6RKe6QmCwsp-5">
          <mxGeometry relative="1" as="geometry" />
        </mxCell>
        <mxCell id="w0IsWjh7T6RKe6QmCwsp-4" value="while (p &amp;lt; n)" style="shape=hexagon;perimeter=hexagonPerimeter2;whiteSpace=wrap;html=1;fixedSize=1;" vertex="1" parent="1">
          <mxGeometry x="105" y="280" width="120" height="80" as="geometry" />
        </mxCell>
        <mxCell id="w0IsWjh7T6RKe6QmCwsp-11" value="" style="edgeStyle=orthogonalEdgeStyle;rounded=0;orthogonalLoop=1;jettySize=auto;html=1;" edge="1" parent="1" source="w0IsWjh7T6RKe6QmCwsp-5" target="w0IsWjh7T6RKe6QmCwsp-6">
          <mxGeometry relative="1" as="geometry" />
        </mxCell>
        <mxCell id="w0IsWjh7T6RKe6QmCwsp-12" style="edgeStyle=orthogonalEdgeStyle;rounded=0;orthogonalLoop=1;jettySize=auto;html=1;entryX=0;entryY=0.5;entryDx=0;entryDy=0;" edge="1" parent="1" source="w0IsWjh7T6RKe6QmCwsp-5" target="w0IsWjh7T6RKe6QmCwsp-4">
          <mxGeometry relative="1" as="geometry">
            <Array as="points">
              <mxPoint x="85" y="420" />
              <mxPoint x="85" y="320" />
            </Array>
          </mxGeometry>
        </mxCell>
        <mxCell id="w0IsWjh7T6RKe6QmCwsp-5" value="&lt;div&gt;int q = p;&lt;/div&gt;&lt;div&gt;int u = 1;&lt;/div&gt;" style="rounded=0;whiteSpace=wrap;html=1;" vertex="1" parent="1">
          <mxGeometry x="105" y="390" width="120" height="60" as="geometry" />
        </mxCell>
        <mxCell id="w0IsWjh7T6RKe6QmCwsp-10" value="" style="edgeStyle=orthogonalEdgeStyle;rounded=0;orthogonalLoop=1;jettySize=auto;html=1;" edge="1" parent="1" source="w0IsWjh7T6RKe6QmCwsp-6" target="w0IsWjh7T6RKe6QmCwsp-9">
          <mxGeometry relative="1" as="geometry" />
        </mxCell>
        <mxCell id="w0IsWjh7T6RKe6QmCwsp-6" value="while (q % 2 == 0)" style="shape=hexagon;perimeter=hexagonPerimeter2;whiteSpace=wrap;html=1;fixedSize=1;" vertex="1" parent="1">
          <mxGeometry x="105" y="480" width="120" height="80" as="geometry" />
        </mxCell>
        <mxCell id="w0IsWjh7T6RKe6QmCwsp-14" style="edgeStyle=orthogonalEdgeStyle;rounded=0;orthogonalLoop=1;jettySize=auto;html=1;entryX=0;entryY=0.5;entryDx=0;entryDy=0;" edge="1" parent="1" source="w0IsWjh7T6RKe6QmCwsp-9" target="w0IsWjh7T6RKe6QmCwsp-6">
          <mxGeometry relative="1" as="geometry">
            <Array as="points">
              <mxPoint x="85" y="630" />
              <mxPoint x="85" y="520" />
            </Array>
          </mxGeometry>
        </mxCell>
        <mxCell id="w0IsWjh7T6RKe6QmCwsp-15" value="" style="edgeStyle=orthogonalEdgeStyle;rounded=0;orthogonalLoop=1;jettySize=auto;html=1;" edge="1" parent="1" source="w0IsWjh7T6RKe6QmCwsp-9" target="w0IsWjh7T6RKe6QmCwsp-13">
          <mxGeometry relative="1" as="geometry" />
        </mxCell>
        <mxCell id="w0IsWjh7T6RKe6QmCwsp-9" value="&lt;div&gt;q /= 2;&lt;/div&gt;&lt;div&gt;u *= 2;&lt;/div&gt;" style="rounded=0;whiteSpace=wrap;html=1;" vertex="1" parent="1">
          <mxGeometry x="105" y="600" width="120" height="60" as="geometry" />
        </mxCell>
        <mxCell id="w0IsWjh7T6RKe6QmCwsp-17" value="" style="edgeStyle=orthogonalEdgeStyle;rounded=0;orthogonalLoop=1;jettySize=auto;html=1;" edge="1" parent="1" source="w0IsWjh7T6RKe6QmCwsp-13">
          <mxGeometry relative="1" as="geometry">
            <mxPoint x="165.0999999999999" y="810.0975609756097" as="targetPoint" />
          </mxGeometry>
        </mxCell>
        <mxCell id="w0IsWjh7T6RKe6QmCwsp-13" value="while (true)" style="shape=hexagon;perimeter=hexagonPerimeter2;whiteSpace=wrap;html=1;fixedSize=1;" vertex="1" parent="1">
          <mxGeometry x="105" y="690" width="120" height="80" as="geometry" />
        </mxCell>
        <mxCell id="w0IsWjh7T6RKe6QmCwsp-20" value="" style="edgeStyle=orthogonalEdgeStyle;rounded=0;orthogonalLoop=1;jettySize=auto;html=1;" edge="1" parent="1" source="w0IsWjh7T6RKe6QmCwsp-18" target="w0IsWjh7T6RKe6QmCwsp-19">
          <mxGeometry relative="1" as="geometry" />
        </mxCell>
        <mxCell id="w0IsWjh7T6RKe6QmCwsp-18" value="r -= u;" style="rounded=0;whiteSpace=wrap;html=1;" vertex="1" parent="1">
          <mxGeometry x="105" y="810" width="120" height="60" as="geometry" />
        </mxCell>
        <mxCell id="w0IsWjh7T6RKe6QmCwsp-22" style="edgeStyle=orthogonalEdgeStyle;rounded=0;orthogonalLoop=1;jettySize=auto;html=1;" edge="1" parent="1" source="w0IsWjh7T6RKe6QmCwsp-19" target="w0IsWjh7T6RKe6QmCwsp-21">
          <mxGeometry relative="1" as="geometry" />
        </mxCell>
        <mxCell id="w0IsWjh7T6RKe6QmCwsp-43" value="" style="edgeStyle=orthogonalEdgeStyle;rounded=0;orthogonalLoop=1;jettySize=auto;html=1;" edge="1" parent="1" source="w0IsWjh7T6RKe6QmCwsp-19" target="w0IsWjh7T6RKe6QmCwsp-42">
          <mxGeometry relative="1" as="geometry" />
        </mxCell>
        <mxCell id="w0IsWjh7T6RKe6QmCwsp-19" value="if (r == 0)" style="rhombus;whiteSpace=wrap;html=1;" vertex="1" parent="1">
          <mxGeometry x="125" y="900" width="80" height="80" as="geometry" />
        </mxCell>
        <mxCell id="w0IsWjh7T6RKe6QmCwsp-26" value="" style="edgeStyle=orthogonalEdgeStyle;rounded=0;orthogonalLoop=1;jettySize=auto;html=1;" edge="1" parent="1" source="w0IsWjh7T6RKe6QmCwsp-21" target="w0IsWjh7T6RKe6QmCwsp-25">
          <mxGeometry relative="1" as="geometry" />
        </mxCell>
        <mxCell id="w0IsWjh7T6RKe6QmCwsp-32" value="" style="edgeStyle=orthogonalEdgeStyle;rounded=0;orthogonalLoop=1;jettySize=auto;html=1;" edge="1" parent="1" source="w0IsWjh7T6RKe6QmCwsp-21" target="w0IsWjh7T6RKe6QmCwsp-25">
          <mxGeometry relative="1" as="geometry" />
        </mxCell>
        <mxCell id="w0IsWjh7T6RKe6QmCwsp-21" value="for (int i = p - 1; i &amp;gt;= 0; i--)" style="shape=hexagon;perimeter=hexagonPerimeter2;whiteSpace=wrap;html=1;fixedSize=1;" vertex="1" parent="1">
          <mxGeometry x="87.5" y="1010" width="155" height="100" as="geometry" />
        </mxCell>
        <mxCell id="w0IsWjh7T6RKe6QmCwsp-33" style="edgeStyle=orthogonalEdgeStyle;rounded=0;orthogonalLoop=1;jettySize=auto;html=1;entryX=0;entryY=0.5;entryDx=0;entryDy=0;" edge="1" parent="1" source="w0IsWjh7T6RKe6QmCwsp-25" target="w0IsWjh7T6RKe6QmCwsp-21">
          <mxGeometry relative="1" as="geometry">
            <Array as="points">
              <mxPoint x="68" y="1150" />
              <mxPoint x="68" y="1060" />
            </Array>
          </mxGeometry>
        </mxCell>
        <mxCell id="w0IsWjh7T6RKe6QmCwsp-25" value="" style="ellipse;shape=doubleEllipse;whiteSpace=wrap;html=1;aspect=fixed;" vertex="1" parent="1">
          <mxGeometry x="150" y="1130" width="30" height="30" as="geometry" />
        </mxCell>
        <mxCell id="w0IsWjh7T6RKe6QmCwsp-29" value="" style="edgeStyle=orthogonalEdgeStyle;rounded=0;orthogonalLoop=1;jettySize=auto;html=1;" edge="1" parent="1" source="w0IsWjh7T6RKe6QmCwsp-27" target="w0IsWjh7T6RKe6QmCwsp-28">
          <mxGeometry relative="1" as="geometry" />
        </mxCell>
        <mxCell id="w0IsWjh7T6RKe6QmCwsp-27" value="" style="ellipse;shape=doubleEllipse;whiteSpace=wrap;html=1;aspect=fixed;" vertex="1" parent="1">
          <mxGeometry x="357.5" y="50" width="30" height="30" as="geometry" />
        </mxCell>
        <mxCell id="w0IsWjh7T6RKe6QmCwsp-31" value="" style="edgeStyle=orthogonalEdgeStyle;rounded=0;orthogonalLoop=1;jettySize=auto;html=1;" edge="1" parent="1" source="w0IsWjh7T6RKe6QmCwsp-28" target="w0IsWjh7T6RKe6QmCwsp-30">
          <mxGeometry relative="1" as="geometry" />
        </mxCell>
        <mxCell id="w0IsWjh7T6RKe6QmCwsp-28" value="DownHeap(array, i, p, n);" style="shape=parallelogram;perimeter=parallelogramPerimeter;whiteSpace=wrap;html=1;fixedSize=1;" vertex="1" parent="1">
          <mxGeometry x="290" y="110" width="165" height="80" as="geometry" />
        </mxCell>
        <mxCell id="w0IsWjh7T6RKe6QmCwsp-36" value="" style="edgeStyle=orthogonalEdgeStyle;rounded=0;orthogonalLoop=1;jettySize=auto;html=1;" edge="1" parent="1" source="w0IsWjh7T6RKe6QmCwsp-30" target="w0IsWjh7T6RKe6QmCwsp-34">
          <mxGeometry relative="1" as="geometry" />
        </mxCell>
        <mxCell id="w0IsWjh7T6RKe6QmCwsp-30" value="return;" style="shape=parallelogram;perimeter=parallelogramPerimeter;whiteSpace=wrap;html=1;fixedSize=1;" vertex="1" parent="1">
          <mxGeometry x="293.75" y="230" width="157.5" height="80" as="geometry" />
        </mxCell>
        <mxCell id="w0IsWjh7T6RKe6QmCwsp-41" value="" style="edgeStyle=orthogonalEdgeStyle;rounded=0;orthogonalLoop=1;jettySize=auto;html=1;" edge="1" parent="1" source="w0IsWjh7T6RKe6QmCwsp-34" target="w0IsWjh7T6RKe6QmCwsp-37">
          <mxGeometry relative="1" as="geometry" />
        </mxCell>
        <mxCell id="w0IsWjh7T6RKe6QmCwsp-34" value="q = r;&lt;div&gt;u = 1;&lt;br&gt;&lt;/div&gt;" style="rounded=0;whiteSpace=wrap;html=1;" vertex="1" parent="1">
          <mxGeometry x="303.75" y="340" width="137.5" height="80" as="geometry" />
        </mxCell>
        <mxCell id="w0IsWjh7T6RKe6QmCwsp-39" value="" style="edgeStyle=orthogonalEdgeStyle;rounded=0;orthogonalLoop=1;jettySize=auto;html=1;" edge="1" parent="1" source="w0IsWjh7T6RKe6QmCwsp-37" target="w0IsWjh7T6RKe6QmCwsp-38">
          <mxGeometry relative="1" as="geometry" />
        </mxCell>
        <mxCell id="w0IsWjh7T6RKe6QmCwsp-37" value="while (q % 2 == 0)" style="shape=hexagon;perimeter=hexagonPerimeter2;whiteSpace=wrap;html=1;fixedSize=1;" vertex="1" parent="1">
          <mxGeometry x="312.5" y="460" width="120" height="80" as="geometry" />
        </mxCell>
        <mxCell id="w0IsWjh7T6RKe6QmCwsp-40" style="edgeStyle=orthogonalEdgeStyle;rounded=0;orthogonalLoop=1;jettySize=auto;html=1;entryX=0;entryY=0.5;entryDx=0;entryDy=0;" edge="1" parent="1" source="w0IsWjh7T6RKe6QmCwsp-38" target="w0IsWjh7T6RKe6QmCwsp-37">
          <mxGeometry relative="1" as="geometry">
            <Array as="points">
              <mxPoint x="373" y="670" />
              <mxPoint x="293" y="670" />
              <mxPoint x="293" y="500" />
            </Array>
          </mxGeometry>
        </mxCell>
        <mxCell id="w0IsWjh7T6RKe6QmCwsp-38" value="q /= 2;&lt;div&gt;u *= 2;&lt;br&gt;&lt;/div&gt;" style="rounded=0;whiteSpace=wrap;html=1;" vertex="1" parent="1">
          <mxGeometry x="312.5" y="580" width="120" height="60" as="geometry" />
        </mxCell>
        <mxCell id="w0IsWjh7T6RKe6QmCwsp-42" value="&lt;div&gt;p += u;&lt;/div&gt;&lt;div&gt;q--;&lt;/div&gt;&lt;div&gt;u /= 2;&lt;/div&gt;" style="rounded=0;whiteSpace=wrap;html=1;" vertex="1" parent="1">
          <mxGeometry x="280" y="910" width="120" height="60" as="geometry" />
        </mxCell>
        <mxCell id="w0IsWjh7T6RKe6QmCwsp-49" value="" style="edgeStyle=orthogonalEdgeStyle;rounded=0;orthogonalLoop=1;jettySize=auto;html=1;" edge="1" parent="1" source="w0IsWjh7T6RKe6QmCwsp-44" target="w0IsWjh7T6RKe6QmCwsp-45">
          <mxGeometry relative="1" as="geometry" />
        </mxCell>
        <mxCell id="w0IsWjh7T6RKe6QmCwsp-44" value="void DownHeap(int[] array, int i, int p, int n)" style="ellipse;whiteSpace=wrap;html=1;" vertex="1" parent="1">
          <mxGeometry x="580" y="110" width="140" height="110" as="geometry" />
        </mxCell>
        <mxCell id="w0IsWjh7T6RKe6QmCwsp-50" value="" style="edgeStyle=orthogonalEdgeStyle;rounded=0;orthogonalLoop=1;jettySize=auto;html=1;" edge="1" parent="1" source="w0IsWjh7T6RKe6QmCwsp-45" target="w0IsWjh7T6RKe6QmCwsp-47">
          <mxGeometry relative="1" as="geometry" />
        </mxCell>
        <mxCell id="w0IsWjh7T6RKe6QmCwsp-45" value="int d = array[i];&lt;div&gt;int child;&lt;br&gt;&lt;/div&gt;" style="rounded=0;whiteSpace=wrap;html=1;" vertex="1" parent="1">
          <mxGeometry x="590" y="260" width="120" height="60" as="geometry" />
        </mxCell>
        <mxCell id="w0IsWjh7T6RKe6QmCwsp-51" value="" style="edgeStyle=orthogonalEdgeStyle;rounded=0;orthogonalLoop=1;jettySize=auto;html=1;" edge="1" parent="1" source="w0IsWjh7T6RKe6QmCwsp-47" target="w0IsWjh7T6RKe6QmCwsp-48">
          <mxGeometry relative="1" as="geometry" />
        </mxCell>
        <mxCell id="w0IsWjh7T6RKe6QmCwsp-65" style="edgeStyle=orthogonalEdgeStyle;rounded=0;orthogonalLoop=1;jettySize=auto;html=1;" edge="1" parent="1" source="w0IsWjh7T6RKe6QmCwsp-47" target="w0IsWjh7T6RKe6QmCwsp-64">
          <mxGeometry relative="1" as="geometry">
            <Array as="points">
              <mxPoint x="500" y="400" />
              <mxPoint x="500" y="1020" />
            </Array>
          </mxGeometry>
        </mxCell>
        <mxCell id="w0IsWjh7T6RKe6QmCwsp-47" value="while (i &amp;lt; p / 2)" style="shape=hexagon;perimeter=hexagonPerimeter2;whiteSpace=wrap;html=1;fixedSize=1;" vertex="1" parent="1">
          <mxGeometry x="590" y="360" width="120" height="80" as="geometry" />
        </mxCell>
        <mxCell id="w0IsWjh7T6RKe6QmCwsp-57" style="edgeStyle=orthogonalEdgeStyle;rounded=0;orthogonalLoop=1;jettySize=auto;html=1;" edge="1" parent="1" source="w0IsWjh7T6RKe6QmCwsp-48" target="w0IsWjh7T6RKe6QmCwsp-52">
          <mxGeometry relative="1" as="geometry" />
        </mxCell>
        <mxCell id="w0IsWjh7T6RKe6QmCwsp-48" value="child = 2 * i + 2;" style="rounded=0;whiteSpace=wrap;html=1;" vertex="1" parent="1">
          <mxGeometry x="590" y="470" width="120" height="60" as="geometry" />
        </mxCell>
        <mxCell id="w0IsWjh7T6RKe6QmCwsp-58" value="" style="edgeStyle=orthogonalEdgeStyle;rounded=0;orthogonalLoop=1;jettySize=auto;html=1;" edge="1" parent="1" source="w0IsWjh7T6RKe6QmCwsp-52" target="w0IsWjh7T6RKe6QmCwsp-53">
          <mxGeometry relative="1" as="geometry" />
        </mxCell>
        <mxCell id="w0IsWjh7T6RKe6QmCwsp-60" value="" style="edgeStyle=orthogonalEdgeStyle;rounded=0;orthogonalLoop=1;jettySize=auto;html=1;" edge="1" parent="1" source="w0IsWjh7T6RKe6QmCwsp-52" target="w0IsWjh7T6RKe6QmCwsp-55">
          <mxGeometry relative="1" as="geometry" />
        </mxCell>
        <mxCell id="w0IsWjh7T6RKe6QmCwsp-52" value="if (child &amp;lt; p - 1 &amp;amp;&amp;amp; array[child] &amp;lt; array[child - 1])" style="rhombus;whiteSpace=wrap;html=1;" vertex="1" parent="1">
          <mxGeometry x="510" y="570" width="130" height="130" as="geometry" />
        </mxCell>
        <mxCell id="w0IsWjh7T6RKe6QmCwsp-53" value="child--;" style="rounded=0;whiteSpace=wrap;html=1;" vertex="1" parent="1">
          <mxGeometry x="660" y="612.5" width="70" height="45" as="geometry" />
        </mxCell>
        <mxCell id="w0IsWjh7T6RKe6QmCwsp-59" value="" style="edgeStyle=orthogonalEdgeStyle;rounded=0;orthogonalLoop=1;jettySize=auto;html=1;" edge="1" parent="1" source="w0IsWjh7T6RKe6QmCwsp-55" target="w0IsWjh7T6RKe6QmCwsp-56">
          <mxGeometry relative="1" as="geometry" />
        </mxCell>
        <mxCell id="w0IsWjh7T6RKe6QmCwsp-62" value="" style="edgeStyle=orthogonalEdgeStyle;rounded=0;orthogonalLoop=1;jettySize=auto;html=1;" edge="1" parent="1" source="w0IsWjh7T6RKe6QmCwsp-55" target="w0IsWjh7T6RKe6QmCwsp-61">
          <mxGeometry relative="1" as="geometry" />
        </mxCell>
        <mxCell id="w0IsWjh7T6RKe6QmCwsp-55" value="(d &amp;lt;= array[child])" style="rhombus;whiteSpace=wrap;html=1;" vertex="1" parent="1">
          <mxGeometry x="510" y="720" width="130" height="130" as="geometry" />
        </mxCell>
        <mxCell id="w0IsWjh7T6RKe6QmCwsp-56" value="break" style="shape=parallelogram;perimeter=parallelogramPerimeter;whiteSpace=wrap;html=1;fixedSize=1;" vertex="1" parent="1">
          <mxGeometry x="650" y="762.5" width="100" height="45" as="geometry" />
        </mxCell>
        <mxCell id="w0IsWjh7T6RKe6QmCwsp-63" style="edgeStyle=orthogonalEdgeStyle;rounded=0;orthogonalLoop=1;jettySize=auto;html=1;entryX=1;entryY=0.5;entryDx=0;entryDy=0;" edge="1" parent="1" source="w0IsWjh7T6RKe6QmCwsp-61" target="w0IsWjh7T6RKe6QmCwsp-47">
          <mxGeometry relative="1" as="geometry">
            <Array as="points">
              <mxPoint x="760" y="910" />
              <mxPoint x="760" y="400" />
            </Array>
          </mxGeometry>
        </mxCell>
        <mxCell id="w0IsWjh7T6RKe6QmCwsp-61" value="array[i] = array[child];&lt;div&gt;i = child;&lt;br&gt;&lt;/div&gt;" style="rounded=0;whiteSpace=wrap;html=1;" vertex="1" parent="1">
          <mxGeometry x="515" y="880" width="120" height="60" as="geometry" />
        </mxCell>
        <mxCell id="w0IsWjh7T6RKe6QmCwsp-64" value="array[i] = d;" style="rounded=0;whiteSpace=wrap;html=1;" vertex="1" parent="1">
          <mxGeometry x="515" y="990" width="120" height="60" as="geometry" />
        </mxCell>
        <mxCell id="wjJRkVO3dmWYZTT3SO5S-1" value="Yes" style="text;html=1;align=center;verticalAlign=middle;resizable=0;points=[];autosize=1;strokeColor=none;fillColor=#70FF45;" vertex="1" parent="1">
          <mxGeometry x="185" y="370" width="40" height="30" as="geometry" />
        </mxCell>
        <mxCell id="wjJRkVO3dmWYZTT3SO5S-2" value="Yes" style="text;html=1;align=center;verticalAlign=middle;resizable=0;points=[];autosize=1;strokeColor=none;fillColor=#70FF45;" vertex="1" parent="1">
          <mxGeometry x="185" y="582.5" width="40" height="30" as="geometry" />
        </mxCell>
        <mxCell id="wjJRkVO3dmWYZTT3SO5S-3" value="Yes" style="text;html=1;align=center;verticalAlign=middle;resizable=0;points=[];autosize=1;strokeColor=none;fillColor=#70FF45;" vertex="1" parent="1">
          <mxGeometry x="190" y="800" width="40" height="30" as="geometry" />
        </mxCell>
        <mxCell id="wjJRkVO3dmWYZTT3SO5S-4" value="Yes" style="text;html=1;align=center;verticalAlign=middle;resizable=0;points=[];autosize=1;strokeColor=none;fillColor=#70FF45;" vertex="1" parent="1">
          <mxGeometry x="225" y="900" width="40" height="30" as="geometry" />
        </mxCell>
        <mxCell id="wjJRkVO3dmWYZTT3SO5S-5" value="Yes" style="text;html=1;align=center;verticalAlign=middle;resizable=0;points=[];autosize=1;strokeColor=none;fillColor=#70FF45;" vertex="1" parent="1">
          <mxGeometry x="392.5" y="565" width="40" height="30" as="geometry" />
        </mxCell>
        <mxCell id="wjJRkVO3dmWYZTT3SO5S-6" value="Yes" style="text;html=1;align=center;verticalAlign=middle;resizable=0;points=[];autosize=1;strokeColor=none;fillColor=#70FF45;" vertex="1" parent="1">
          <mxGeometry x="610" y="582.5" width="40" height="30" as="geometry" />
        </mxCell>
        <mxCell id="wjJRkVO3dmWYZTT3SO5S-7" value="Yes" style="text;html=1;align=center;verticalAlign=middle;resizable=0;points=[];autosize=1;strokeColor=none;fillColor=#70FF45;" vertex="1" parent="1">
          <mxGeometry x="600" y="732.5" width="40" height="30" as="geometry" />
        </mxCell>
        <mxCell id="wjJRkVO3dmWYZTT3SO5S-8" value="Yes" style="text;html=1;align=center;verticalAlign=middle;resizable=0;points=[];autosize=1;strokeColor=none;fillColor=#70FF45;" vertex="1" parent="1">
          <mxGeometry x="675" y="450" width="40" height="30" as="geometry" />
        </mxCell>
        <mxCell id="YOXPGjC7Go9wiP62kXFH-1" value="No" style="text;html=1;align=center;verticalAlign=middle;resizable=0;points=[];autosize=1;strokeColor=none;fillColor=#FF0000;" vertex="1" parent="1">
          <mxGeometry x="570" y="360" width="40" height="30" as="geometry" />
        </mxCell>
        <mxCell id="YOXPGjC7Go9wiP62kXFH-2" value="No" style="text;html=1;align=center;verticalAlign=middle;resizable=0;points=[];autosize=1;strokeColor=none;fillColor=#FF0000;" vertex="1" parent="1">
          <mxGeometry x="530" y="680" width="40" height="30" as="geometry" />
        </mxCell>
        <mxCell id="YOXPGjC7Go9wiP62kXFH-3" value="No" style="text;html=1;align=center;verticalAlign=middle;resizable=0;points=[];autosize=1;strokeColor=none;fillColor=#FF0000;" vertex="1" parent="1">
          <mxGeometry x="530" y="825" width="40" height="30" as="geometry" />
        </mxCell>
        <mxCell id="YOXPGjC7Go9wiP62kXFH-4" value="No" style="text;html=1;align=center;verticalAlign=middle;resizable=0;points=[];autosize=1;strokeColor=none;fillColor=#FF0000;" vertex="1" parent="1">
          <mxGeometry x="170" y="960" width="40" height="30" as="geometry" />
        </mxCell>
        <mxCell id="Q6MUscxeDDXQfe3tTklo-2" value="O(1)" style="text;html=1;align=center;verticalAlign=middle;resizable=0;points=[];autosize=1;strokeColor=#70FF45;fillColor=#70FF45;" vertex="1" parent="1">
          <mxGeometry x="205" y="230" width="50" height="30" as="geometry" />
        </mxCell>
        <mxCell id="Q6MUscxeDDXQfe3tTklo-3" value="O(N*log(N))" style="text;html=1;align=center;verticalAlign=middle;resizable=0;points=[];autosize=1;strokeColor=#FF9933;fillColor=#FF6666;" vertex="1" parent="1">
          <mxGeometry x="190" y="690" width="90" height="30" as="geometry" />
        </mxCell>
        <mxCell id="Q6MUscxeDDXQfe3tTklo-4" value="O(N)" style="text;html=1;align=center;verticalAlign=middle;resizable=0;points=[];autosize=1;strokeColor=#FF9933;fillColor=#FF9933;" vertex="1" parent="1">
          <mxGeometry x="205" y="300" width="50" height="30" as="geometry" />
        </mxCell>
        <mxCell id="Q6MUscxeDDXQfe3tTklo-5" value="O(N)" style="text;html=1;align=center;verticalAlign=middle;resizable=0;points=[];autosize=1;strokeColor=#FF9933;fillColor=#FF9933;" vertex="1" parent="1">
          <mxGeometry x="210" y="1020" width="50" height="30" as="geometry" />
        </mxCell>
        <mxCell id="Q6MUscxeDDXQfe3tTklo-6" value="O(1)" style="text;html=1;align=center;verticalAlign=middle;resizable=0;points=[];autosize=1;strokeColor=#70FF45;fillColor=#70FF45;" vertex="1" parent="1">
          <mxGeometry x="175" y="895" width="50" height="30" as="geometry" />
        </mxCell>
        <mxCell id="Q6MUscxeDDXQfe3tTklo-7" value="O(N*log(N))" style="text;html=1;align=center;verticalAlign=middle;resizable=0;points=[];autosize=1;strokeColor=#FF9933;fillColor=#FF6666;" vertex="1" parent="1">
          <mxGeometry x="365" y="520" width="90" height="30" as="geometry" />
        </mxCell>
        <mxCell id="Q6MUscxeDDXQfe3tTklo-8" value="O(1)" style="text;html=1;align=center;verticalAlign=middle;resizable=0;points=[];autosize=1;strokeColor=#70FF45;fillColor=#70FF45;" vertex="1" parent="1">
          <mxGeometry x="685" y="305" width="50" height="30" as="geometry" />
        </mxCell>
        <mxCell id="Q6MUscxeDDXQfe3tTklo-9" value="O(1)" style="text;html=1;align=center;verticalAlign=middle;resizable=0;points=[];autosize=1;strokeColor=#70FF45;fillColor=#70FF45;" vertex="1" parent="1">
          <mxGeometry x="685" y="520" width="50" height="30" as="geometry" />
        </mxCell>
        <mxCell id="Q6MUscxeDDXQfe3tTklo-10" value="O(1)" style="text;html=1;align=center;verticalAlign=middle;resizable=0;points=[];autosize=1;strokeColor=#70FF45;fillColor=#70FF45;" vertex="1" parent="1">
          <mxGeometry x="590" y="660" width="50" height="30" as="geometry" />
        </mxCell>
        <mxCell id="Q6MUscxeDDXQfe3tTklo-11" value="O(1)" style="text;html=1;align=center;verticalAlign=middle;resizable=0;points=[];autosize=1;strokeColor=#70FF45;fillColor=#70FF45;" vertex="1" parent="1">
          <mxGeometry x="595" y="807.5" width="50" height="30" as="geometry" />
        </mxCell>
        <mxCell id="Q6MUscxeDDXQfe3tTklo-12" value="O(1)" style="text;html=1;align=center;verticalAlign=middle;resizable=0;points=[];autosize=1;strokeColor=#70FF45;fillColor=#70FF45;" vertex="1" parent="1">
          <mxGeometry x="610" y="1040" width="50" height="30" as="geometry" />
        </mxCell>
        <mxCell id="Q6MUscxeDDXQfe3tTklo-13" value="O(N)" style="text;html=1;align=center;verticalAlign=middle;resizable=0;points=[];autosize=1;strokeColor=#FF9933;fillColor=#FF9933;" vertex="1" parent="1">
          <mxGeometry x="690" y="410" width="50" height="30" as="geometry" />
        </mxCell>
        <mxCell id="Q6MUscxeDDXQfe3tTklo-14" value="" style="shape=curlyBracket;whiteSpace=wrap;html=1;rounded=1;flipH=1;labelPosition=right;verticalLabelPosition=middle;align=left;verticalAlign=middle;" vertex="1" parent="1">
          <mxGeometry x="760" y="100" width="20" height="1000" as="geometry" />
        </mxCell>
        <mxCell id="Q6MUscxeDDXQfe3tTklo-15" value="O(N*log(N))" style="text;html=1;align=center;verticalAlign=middle;resizable=0;points=[];autosize=1;strokeColor=#FF9933;fillColor=#FF6666;rotation=90;" vertex="1" parent="1">
          <mxGeometry x="760" y="585" width="90" height="30" as="geometry" />
        </mxCell>
        <mxCell id="Q6MUscxeDDXQfe3tTklo-16" value="O(1)" style="text;html=1;align=center;verticalAlign=middle;resizable=0;points=[];autosize=1;strokeColor=#70FF45;fillColor=#70FF45;" vertex="1" parent="1">
          <mxGeometry x="401.25" y="400" width="50" height="30" as="geometry" />
        </mxCell>
        <mxCell id="Q6MUscxeDDXQfe3tTklo-19" value="O(N*log(N))" style="text;html=1;align=center;verticalAlign=middle;resizable=0;points=[];autosize=1;strokeColor=#FF9933;fillColor=#FF6666;" vertex="1" parent="1">
          <mxGeometry x="351.25" y="170" width="90" height="30" as="geometry" />
        </mxCell>
        <mxCell id="Q6MUscxeDDXQfe3tTklo-20" value="" style="shape=curlyBracket;whiteSpace=wrap;html=1;rounded=1;flipH=1;labelPosition=right;verticalLabelPosition=middle;align=left;verticalAlign=middle;" vertex="1" parent="1">
          <mxGeometry x="441.25" y="60" width="20" height="600" as="geometry" />
        </mxCell>
        <mxCell id="Q6MUscxeDDXQfe3tTklo-21" value="O(N*log(N))" style="text;html=1;align=center;verticalAlign=middle;resizable=0;points=[];autosize=1;strokeColor=#FF9933;fillColor=#FF6666;rotation=90;" vertex="1" parent="1">
          <mxGeometry x="432.5" y="340" width="90" height="30" as="geometry" />
        </mxCell>
      </root>
    </mxGraphModel>
  </diagram>
</mxfile>
